<svg xmlns="http://www.w3.org/2000/svg" xmlns:xlink="http://www.w3.org/1999/xlink" width="18" height="14" viewBox="0 0 18 14"><defs><path id="a" d="M5.544 12.757l5.445-5.252a1.838 1.838 0 0 1 2.532 0c.698.674.698 1.77 0 2.444l-2.407 2.323h10.095c.989 0 1.791.774 1.791 1.728s-.802 1.728-1.79 1.728H11.113l2.407 2.323c.698.674.698 1.77 0 2.444-.7.673-1.834.673-2.532 0l-5.445-5.252A1.693 1.693 0 0 1 5 14c0-.442.176-.885.525-1.222l.02-.02z"/></defs><use fill="#333" xlink:href="#a" fill-rule="evenodd" transform="translate(-5 -7)"/></svg>