<svg xmlns="http://www.w3.org/2000/svg" width="320" height="320" viewBox="0 0 320 320">
  <path fill="#315EFB" d="M282.260749,194 L292.346199,194 L317,127 L306.91455,127 L282.260269,194 L282.260749,194 Z M259.173587,170.55 C252.674651,170.55 249.089098,165.19 249.089098,159.83 C249.089098,154.47 252.674651,149.11 259.173587,149.11 C265.448786,149.11 269.033859,153.8 269.033859,159.83 C269.033859,165.636507 265.672523,170.55 259.173587,170.55 Z M249.312355,146.206507 L249.312355,142.41 L239.900517,142.41 L239.900517,194 L249.536572,194 L249.536572,173.9 C250.657177,175.016507 254.466948,178.143493 260.293713,178.143493 C269.257596,178.143493 277.549309,171.443493 277.549309,159.83 C277.773526,147.546507 268.585425,141.516507 260.293713,141.516507 C254.018514,141.516507 250.43296,144.866507 249.312355,146.206507 L249.312355,146.206507 Z M217.263709,148.886507 C223.763125,148.886507 224.883731,154.023493 225.107948,156.033493 L208.74682,156.033493 C208.971037,153.576507 211.436465,148.886507 217.263709,148.886507 L217.263709,148.886507 Z M199.109804,159.83 C199.109804,170.103493 206.506089,178.143493 217.712144,178.143493 C228.918199,178.143493 233.625318,170.326507 233.625318,170.326507 L226.453251,165.636507 C226.453251,165.636507 223.987823,170.55 217.712144,170.55 C211.212728,170.55 208.523083,164.966507 208.523083,162.956507 L234.297489,162.956507 C234.297489,162.956507 234.521706,161.393493 234.521706,160.946507 L234.521706,159.83 C234.521706,149.333493 228.246508,141.516507 217.488407,141.516507 C206.506089,141.516507 199.109804,149.556507 199.109804,159.83 L199.109804,159.83 Z M198.437633,177.25 L185.662538,142.41 L175.576609,142.41 L162.577297,177.25 L173.11118,177.25 L180.507465,155.14 L180.731682,155.14 L188.127966,177.25 L198.437633,177.25 L198.437633,177.25 Z M143.75074,170.55 C137.251324,170.55 134.561679,165.413493 134.561679,160.5 C134.561679,155.586507 137.251324,151.12 143.75122,151.12 C150.250636,151.12 152.491847,156.703493 152.491847,160.723493 C152.491847,164.743493 150.250636,170.55 143.75074,170.55 Z M135.682284,145.313493 C135.906502,144.196507 137.027107,134.816507 149.577985,134.816507 L157.422703,134.816507 L160.336086,127 L149.802202,127 C135.906502,127 125.148401,133.476507 125.148401,156.033493 C125.148401,168.316507 130.527691,178.366507 143.526523,178.366507 C155.853664,178.366507 162.129343,169.433493 162.129343,160.5 C162.129343,147.546507 152.491847,142.41 144.647609,142.41 C139.940969,142.41 136.578673,144.643493 135.682284,145.313493 Z M86.5988991,142.633493 L86.374682,142.41 L78.0820092,142.41 L78.0820092,177.25 L87.7195046,177.25 L87.7195046,156.926507 L97.1327829,168.763493 L97.357,169.21 L99.8224281,169.21 L109.459443,156.926507 L109.459443,177.25 L119.096939,177.25 L119.096939,142.41 L110.804266,142.41 L98.7018226,157.15 L86.5988991,142.633493 Z M53.2039908,170.773493 C48.2731346,170.773493 47.8251804,167.87 47.8251804,166.753493 C47.8251804,164.073493 50.0663914,162.51 55.669419,161.84 C57.2384587,161.616507 58.8074985,161.616507 60.3760581,161.616507 L61.0482294,161.616507 L61.0482294,162.733493 C61.0482294,167.423493 58.3590642,170.773493 53.2039908,170.773493 Z M70.0135535,158.936507 L70.0135535,156.926507 C69.5651193,145.983493 64.8584801,141.516507 54.9972477,141.516507 C48.2731346,141.516507 43.7911927,144.196507 42.2221529,145.313493 L44.911318,152.46 C44.911318,152.46 48.9457859,148.886507 54.1008593,148.886507 C61.4966636,148.886507 60.6002752,154.916507 60.6002752,154.916507 C58.1348471,154.916507 38.1881651,153.8 38.1881651,166.753493 C38.1881651,173.9 44.2386667,177.92 50.7385627,177.92 C56.5658073,177.92 59.928104,175.016507 60.8244924,173.9 C60.8244924,174.123493 61.0487095,177.25 61.0487095,177.25 L70.0135535,177.25 C70.4619878,177.25 70.0135535,174.346507 70.0135535,169.433493 L70.0135535,158.936507 L70.0135535,158.936507 Z M17.7920887,151.12 L12.8617125,151.12 L12.8617125,135.263493 L17.7925688,135.263493 C21.6028196,135.486507 27.2058471,137.496507 27.2058471,143.303493 C27.205367,149.11 21.6023394,151.12 17.7925688,151.12 L17.7920887,151.12 Z M3,127 L3,177.473493 L13.0854495,177.473493 L13.0854495,159.606507 L18.4647401,159.606507 C28.7744067,159.606507 37.2912966,154.246507 37.2912966,143.303493 C37.2912966,132.583493 28.7744067,127 18.6889572,127 L3,127 Z"/>
</svg>
