<svg xmlns="http://www.w3.org/2000/svg" width="320" height="320" viewBox="0 0 320 320">
  <g fill="none" transform="translate(57 120)">
    <path fill="#000" d="M109.7352,62.0024318 L105.8472,62.0024318 L105.8292,19.8164318 L83.1006,19.8164318 L83.1006,23.9459773 C83.1006,36.8211818 82.6326,51.7216591 78.165,62.0024318 L75.15,62.0024318 L75.15,77.2063409 L81.9486,77.2063409 L81.9486,68.1518636 L102.933,68.1518636 L102.933,77.2045455 L109.7334,77.2045455 L109.7334,62.0006364 L109.7352,62.0024318 Z M139.932,59.2679545 C137.988,60.6145455 134.5878,62.5356818 130.3146,62.5356818 C124.2918,62.5356818 121.1832,56.7704773 121.1832,45.8182045 L141.5826,45.8182045 L141.5826,41.6868636 C141.5826,25.2584545 136.2402,19.2041818 128.079,19.2041818 C117.6858,19.2041818 113.3136,30.5406818 113.3136,46.1054773 C113.3136,60.9969773 119.5308,68.9705909 129.6342,68.9705909 C134.4906,68.9705909 138.5712,67.4336818 141.6798,65.0331591 L139.932,59.2679545 L139.932,59.2679545 Z M62.3448,19.7553864 L62.3448,40.4228636 L51.0768,40.4228636 L51.0768,19.7571818 L43.4988,19.7571818 L43.4988,68.1787955 L51.0768,68.1787955 L51.0768,46.3352955 L62.3448,46.3352955 L62.3448,68.1787955 L69.8256,68.1787955 L69.8256,19.7553864 L62.3448,19.7553864 Z M169.677,68.1608409 L177.9336,68.1608409 L164.043,42.5073864 L176.1858,19.7374318 L168.5106,19.7374318 L156.7566,42.1231591 L156.7566,19.7374318 L149.1786,19.7374318 L149.1786,68.1608409 L156.7566,68.1608409 L156.7566,44.0425 L169.677,68.15725 L169.677,68.1608409 Z M206.541,65.1301136 L204.7914,59.5570227 C203.0418,61.0939318 200.2248,62.5356818 196.5348,62.5356818 C190.4148,62.5356818 187.4988,55.6177955 187.4988,43.5128409 C187.4988,31.3109318 191.3868,25.2584545 196.8246,25.2584545 C199.9332,25.2584545 202.8474,26.8923182 204.8886,28.6213409 L205.9578,21.5113409 C203.8194,20.1665455 201.294,19.0138636 196.9218,19.0138636 C185.4594,19.0138636 179.5338,28.7165 179.5338,43.8970682 C179.5338,60.4224318 185.8482,68.7820682 196.3404,68.7820682 C200.808,68.7820682 203.9184,67.3403182 206.5392,65.1301136 L206.541,65.1301136 Z M98.4546,62.173 L85.437,62.173 C89.514,51.8940227 90,37.0007273 90,26.8169091 L90,25.9532955 L98.4528,25.9532955 L98.4528,62.173 L98.4546,62.173 Z M133.7436,39.7585455 L121.212,39.7585455 C121.698,31.1116364 123.3486,25.4433864 128.0106,25.4433864 C132.3828,25.4433864 133.7436,31.4958636 133.7436,39.7585455 Z"/>
    <path fill="#F00" d="M26.7138,42.5648409 L26.7138,68.2182955 L34.1946,68.2182955 L34.1946,0.00718181818 L23.022,0.00718181818 C12.0456,0.00718181818 2.817,7.40265909 2.817,21.8129773 C2.817,32.09375 6.8976,37.6668409 13.0176,40.7406591 L0,68.2182955 L8.6454,68.2182955 L20.4966,42.5648409 L26.7138,42.5648409 Z M26.6904,36.5805909 L22.7088,36.5805909 C16.2,36.5805909 10.8558,33.0255909 10.8558,21.9763636 C10.8558,10.5447045 16.6842,6.46363636 22.7088,6.46363636 L26.6904,6.46363636 L26.6904,36.5805909 Z"/>
  </g>
</svg>
