<svg xmlns="http://www.w3.org/2000/svg" xmlns:xlink="http://www.w3.org/1999/xlink" width="395" height="646" viewBox="0 0 395 646">
  <defs>
    <rect id="articles-right-a" width="395" height="646"/>
  </defs>
  <g fill="none" fill-rule="evenodd">
    <mask id="articles-right-b" fill="#fff">
      <use xlink:href="#articles-right-a"/>
    </mask>
    <g stroke="#000" mask="url(#articles-right-b)" opacity=".08">
      <path stroke-width="2" d="M271.966917,3.32677103 C257.811113,-2.10713321 241.766265,2.19207089 232.223931,13.9758723 L8.80001391,289.881432 C-0.742320302,301.665233 -1.61166497,318.253318 6.64665268,330.970012 L200.006646,628.71829 C208.264963,641.434984 223.772527,647.38778 238.418782,643.463328 L581.345746,551.576325 C595.992002,547.651872 606.445548,534.742818 607.239114,519.600679 L625.81964,165.06311 C626.613206,149.920971 617.566289,135.98994 603.410485,130.556036 L271.966917,3.32677103 Z"/>
      <path stroke-width="1.8" d="M275.691478,34.9937331 C262.955505,30.1040604 248.519961,33.9726784 239.934694,44.5763148 L38.9177387,292.851731 C30.3324199,303.455432 29.5502611,318.382324 36.9803451,329.825501 L210.948458,597.756231 C218.378499,609.199342 232.33066,614.555941 245.507891,611.024542 L554.043052,528.339423 C567.220324,524.808013 576.625442,513.19178 577.339421,499.566059 L594.056525,180.533116 C594.770504,166.907386 586.630927,154.37151 573.894901,149.481817 L275.691478,34.9937331 Z"/>
      <path stroke-width="1.584" d="M280.189462,69.633438 C268.989261,65.3329706 256.294433,68.7354203 248.744407,78.0613398 L71.9635383,296.424056 C64.4134391,305.750066 63.7255922,318.878365 70.259758,328.942703 L223.252992,564.592623 C229.787098,574.656869 242.056838,579.368001 253.645086,576.262135 L524.980973,503.539079 C536.569279,500.433197 544.840313,490.216676 545.4682,478.23278 L560.169767,197.637541 C560.797654,185.653632 553.639556,174.628273 542.43928,170.327777 L280.189462,69.633438 Z"/>
      <path stroke-width="1.346" d="M285.08518,107.237266 C275.555368,103.584581 264.753831,106.474519 258.330067,114.395353 L107.923763,299.854098 C101.500359,307.774487 100.915175,318.923773 106.474206,327.471137 L236.641837,527.612164 C242.201159,536.159977 252.640913,540.161434 262.500907,537.523405 L493.35523,475.758617 C503.214942,473.120663 510.251901,464.44373 510.786086,454.266107 L523.294273,215.952342 C523.828455,205.77478 517.738465,196.411031 508.209018,192.758486 L285.08518,107.237266 Z"/>
    </g>
  </g>
</svg>
