<svg xmlns="http://www.w3.org/2000/svg" width="320" height="320" viewBox="0 0 320 320">
  <path fill="#00204D" d="M95.6205435,152.799231 C102.042147,152.799231 106.260842,156.183846 108.225598,161.666923 L117.862255,161.666923 C115.489239,151.056154 106.975299,144.396923 95.612038,144.396923 C82.0628804,144.396923 71.7968207,154.863846 71.7968207,168.512308 C71.7968207,182.160769 82.0033424,192.280769 95.612038,192.280769 C106.975299,192.280769 115.217065,185.325385 117.862255,175.010769 L108.234103,175.010769 C106.30337,180.282308 102.042147,183.878462 95.6290489,183.878462 C86.7238587,183.878462 81.1698098,177.557692 81.1698098,168.512308 C81.1698098,159.466923 86.7238587,152.799231 95.6205435,152.799231 Z M135.391957,149.600769 L134.949674,149.600769 L134.422337,145.04 L126.359185,145.04 L126.359185,192.424615 L135.36644,192.424615 L135.36644,162.462308 C135.36644,156.133077 140.274076,152.697692 146.738207,152.697692 C147.307626,152.657445 147.879903,152.694451 148.439293,152.807692 L148.439293,144.117692 C147.881308,143.993204 147.309773,143.939188 146.738207,143.956923 C142.297576,144.051903 138.134924,146.127147 135.400462,149.609231 L135.391957,149.600769 Z M231.869103,143.94 C223.848478,143.94 218.957853,147.324615 216.805978,149.600769 L216.363696,149.600769 L215.836359,145.04 L207.773207,145.04 L207.773207,192.424615 L216.780462,192.424615 L216.780462,162.631538 C216.780462,155.997692 222.819321,152.477692 230.23606,152.477692 C236.615136,152.477692 241.140027,155.625385 241.140027,162.208462 L241.140027,192.466923 L250.147283,192.466923 L250.147283,161.692308 C250.155788,148.568462 240.833832,143.948462 231.877609,143.948462 L231.869103,143.94 Z M261.714674,192.466923 L270.730435,192.466923 L270.730435,145.082308 L261.714674,145.082308 L261.714674,192.466923 Z M174.959239,144.405385 C161.2825,144.405385 150.965408,154.694615 150.965408,168.343077 C150.965408,181.991538 161.239973,192.289231 174.959239,192.289231 C188.678505,192.289231 198.953071,182 198.953071,168.351538 C198.953071,154.703077 188.567935,144.405385 174.959239,144.405385 Z M174.959239,183.717692 C166.07106,183.717692 160.321386,177.253077 160.321386,168.351538 C160.321386,159.45 166.037038,152.799231 174.959239,152.799231 C183.88144,152.799231 189.597092,159.433077 189.597092,168.343077 C189.597092,177.253077 183.804891,183.717692 174.959239,183.717692 L174.959239,183.717692 Z M299.759484,163.663846 C290.87981,161.743077 291.254049,159.568462 291.254049,157.630769 C291.254049,155.312308 293.899239,152.376154 298.185978,152.376154 C301.800788,152.376154 305.585707,154.153077 305.585707,160.143846 L314.244239,160.143846 C314.44837,150.472308 308.043777,144.506923 298.12644,144.506923 C289.340326,144.506923 282.187255,150.548462 282.187255,157.986154 C282.187255,167.353077 289.723071,170.280769 297.871277,172.049231 C306.512799,173.927692 307.227255,176.593077 307.227255,178.463077 C307.227255,182.050769 303.552908,185.105385 298.441141,185.105385 C294.766793,185.105385 289.161712,182.812308 289.161712,175.933077 L280.52019,175.933077 C279.984348,186.746923 287.894402,192.983077 298.449647,192.983077 C308.494565,192.983077 316.42163,186.586154 316.42163,178.107692 C316.413125,168.503846 307.79712,165.423846 299.716957,163.672308 L299.759484,163.663846 Z M33.7690217,127 L4,192.466923 L13.4920652,192.466923 L19.3097826,179.25 L56.4445109,179.25 L62.2792391,192.466923 L71.7798098,192.466923 L42.010788,127 L33.7690217,127 Z M53.101875,171.905385 L22.7119565,171.905385 L25.4932337,165.787692 L50.3205978,165.787692 L53.101875,171.905385 Z M28.7933424,158.434615 L37.2987772,139.370769 L37.7410598,138.169231 L38.1408152,138.169231 L38.5916033,139.370769 L47.0289946,158.434615 L28.7933424,158.434615 Z"/>
</svg>
