<svg xmlns="http://www.w3.org/2000/svg" width="320" height="320" viewBox="0 0 320 320">
  <path fill="#ED3523" fill-rule="evenodd" d="M222.776642,159.619647 C220.840192,159.619647 219.266696,161.199248 219.266696,163.129872 C219.266696,165.079376 220.840192,166.643594 222.776642,166.643594 C224.710994,166.643594 226.282393,165.079376 226.282393,163.129872 C226.282393,161.199248 224.710994,159.619647 222.776642,159.619647 L222.776642,159.619647 Z M101.150945,162.957158 C101.150945,162.957158 102.902072,157.09606 103.168518,156.177947 C103.876241,153.793511 104.93503,150.039248 104.93503,150.039248 L105.108464,150.039248 C105.108464,150.039248 106.083333,153.930564 106.719725,156.143684 C106.968687,157.004459 108.641489,162.957158 108.641489,162.957158 L101.150945,162.957158 Z M111.809462,173.599015 L118.144709,173.599015 L108.576451,144.355759 C107.570112,144.015925 106.312014,143.803353 104.983983,143.803353 C103.533569,143.803353 103.016063,143.995647 101.87825,144.355759 L91.7316445,173.599015 L97.799747,173.599015 C97.799747,173.599015 98.6137693,171.038368 99.6082192,167.856789 L110.100994,167.856789 C111.046491,171.036271 111.809462,173.599015 111.809462,173.599015 L111.809462,173.599015 Z M316.768241,173.599015 C316.768241,173.599015 313.768807,167.196699 313.03311,165.749256 C312.2058,164.106023 311.443529,162.972541 309.749048,162.569774 L309.749048,162.473278 C310.884063,162.259308 311.785502,161.571248 312.76107,159.480496 C313.701671,157.434496 313.980005,156.997466 314.528981,156.514286 C315.070264,156.024113 315.807359,156.210812 315.807359,156.210812 L316.086393,152.402707 C315.297547,152.29782 314.426878,152.296421 313.527538,152.345368 C312.041457,152.437669 311.265199,152.859316 310.537894,153.602617 C309.968638,154.168308 309.574914,155.012301 309.091676,156.001737 C308.574869,157.059 308.169257,157.91418 307.651052,158.991023 C307.122357,160.093038 306.864304,160.585308 305.440464,160.585308 L304.516647,160.585308 L304.516647,152.67891 L298.994722,152.67891 L298.994722,173.599015 L304.516647,173.599015 L304.516647,165.050707 L305.268429,165.03812 C306.837729,165.03812 307.106273,165.429699 307.939876,167.08482 C308.921738,169.063692 310.775667,173.599015 310.775667,173.599015 L316.768241,173.599015 Z M294.198705,173.599015 L294.198705,152.67891 L288.69776,152.67891 L288.69776,160.588805 L282.47091,160.588805 L282.47091,152.67891 L276.980455,152.67891 L276.980455,173.599015 L282.47091,173.599015 L282.47091,165.056301 L288.69776,165.056301 L288.69776,173.599015 L294.198705,173.599015 Z M143.073092,152.488714 L143.050714,172.499098 C145.657823,173.599015 148.521587,174.094782 151.066455,174.094782 C156.905876,174.094782 160.030491,171.076827 160.030491,166.102376 C160.030491,161.601316 157.264633,158.81691 152.095172,158.81691 C150.781827,158.81691 150.011863,158.991023 148.569841,159.33715 L148.569841,152.488714 L143.073092,152.488714 Z M154.344224,166.357602 C154.344224,168.421782 153.616918,169.835662 150.976241,169.835662 C150.086691,169.835662 149.720941,169.835662 148.567043,169.512609 L148.567043,163.479496 C149.999974,163.200496 150.126553,163.153647 150.976241,163.153647 C153.50013,163.153647 154.344224,164.380827 154.344224,166.357602 L154.344224,166.357602 Z M274.099907,171.591474 C272.643199,169.384647 272.266259,168.082647 272.266259,165.306632 L272.266259,159.671391 C272.266259,156.626865 271.917293,155.510165 271.112362,154.394165 C269.99413,152.828549 268.135306,152.151677 264.701587,152.151677 C262.277702,152.151677 259.903471,152.413895 257.631342,152.992173 L258.444665,157.028233 C259.985293,156.812865 261.605645,156.626865 262.767934,156.626865 C266.402362,156.626865 266.821961,157.157594 266.821961,159.883962 L266.821961,160.906263 C266.014932,160.688797 265.107199,160.532165 264.046313,160.532165 C258.548865,160.532165 255.654331,163.213083 255.654331,167.639323 C255.654331,171.79915 258.747475,174.070308 262.534357,174.070308 C263.943511,174.070308 265.408611,173.80809 266.570201,173.338895 C267.27303,173.029827 267.577939,172.855714 268.483573,172.257158 C269.032549,173.062692 270.133297,173.876617 270.579471,174.023459 L274.099907,171.591474 Z M267.109386,169.179767 C265.902339,169.597917 265.107199,169.694414 264.148415,169.694414 C262.179796,169.694414 261.071355,168.917549 261.071355,166.900218 C261.071355,164.801075 262.480509,164.08994 265.205805,164.08994 C265.867373,164.08994 266.521248,164.189932 266.821961,164.296917 L266.821961,165.802398 C266.821961,167.426053 266.910077,168.488211 267.109386,169.179767 L267.109386,169.179767 Z M213.43217,171.591474 C211.981057,169.384647 211.604117,168.082647 211.604117,165.306632 L211.604117,159.671391 C211.604117,156.626865 211.251653,155.510165 210.444624,154.394165 C209.331988,152.828549 207.469667,152.151677 204.038045,152.151677 C201.618357,152.151677 199.237832,152.413895 196.963604,152.992173 L197.779025,157.028233 C199.325947,156.812865 200.936509,156.626865 202.101596,156.626865 C205.743016,156.626865 206.162616,157.157594 206.162616,159.883962 L206.162616,160.906263 C205.353489,160.688797 204.44156,160.532165 203.382771,160.532165 C197.881128,160.532165 194.986593,163.213083 194.986593,167.639323 C194.986593,171.79915 198.078339,174.070308 201.870117,174.070308 C203.277872,174.070308 204.747168,173.80809 205.908758,173.338895 C206.607391,173.029827 206.912299,172.855714 207.82213,172.257158 C208.371106,173.062692 209.46556,173.876617 209.913832,174.023459 L213.43217,171.591474 Z M206.445146,169.179767 C205.2367,169.597917 204.44156,169.694414 203.486972,169.694414 C201.519751,169.694414 200.40152,168.917549 200.40152,166.900218 C200.40152,164.801075 201.812771,164.08994 204.538068,164.08994 C205.193342,164.08994 205.853511,164.189932 206.162616,164.296917 L206.162616,165.802398 C206.162616,167.426053 206.242339,168.488211 206.445146,169.179767 L206.445146,169.179767 Z M138.714157,173.599015 L138.714157,153.44109 C135.695141,152.541857 133.37266,152.151677 130.343155,152.151677 C127.316446,152.151677 125.05131,152.541857 122.030896,153.44109 L122.030896,163.761992 C122.030896,166.568774 121.982642,167.410669 121.677034,168.317594 C121.372825,169.112639 120.965114,170.067113 119.857373,170.80482 L121.356041,174.023459 C125.770923,172.776699 127.433934,170.855865 127.433934,164.750729 L127.433934,157.157594 C128.89274,156.944323 129.180865,156.895376 130.343155,156.895376 C131.513137,156.895376 131.757204,156.944323 133.211814,157.157594 L133.211814,173.599015 L138.714157,173.599015 Z M180.323003,180.451647 L180.323003,172.935429 C181.019538,173.347286 182.408411,173.955632 184.750473,173.955632 C189.407324,173.955632 192.838945,170.085992 192.838945,163.014496 C192.838945,155.397586 189.429702,152.136992 183.826656,152.136992 C182.402816,152.136992 181.476201,152.283135 180.323003,152.832744 L180.323003,143.852301 L174.846535,143.852301 L174.846535,152.832744 C173.694736,152.283135 172.762527,152.136992 171.340785,152.136992 C165.737738,152.136992 162.326397,155.532541 162.326397,163.144556 C162.326397,170.21885 165.410451,173.955632 170.408576,173.955632 C172.760429,173.955632 174.150001,173.347286 174.846535,172.935429 L174.846535,180.451647 L180.323003,180.451647 L180.323003,180.451647 Z M167.973502,163.144556 C167.973502,158.945571 169.238593,156.725459 171.761083,156.725459 C172.826166,156.725459 173.53319,156.719165 174.846535,157.34709 L174.846535,168.89797 C173.654175,169.28885 173.090513,169.341992 172.027529,169.341992 C169.152576,169.341992 167.973502,166.996015 167.973502,163.144556 L167.973502,163.144556 Z M187.194638,163.014496 C187.194638,166.861759 185.662402,169.341992 183.139912,169.341992 C182.081123,169.341992 181.51956,169.28885 180.323003,168.89797 L180.323003,157.34709 C181.636348,156.719165 182.343373,156.725459 183.404259,156.725459 C185.930246,156.725459 187.194638,158.812714 187.194638,163.014496 L187.194638,163.014496 Z M253.556335,164.51788 C253.556335,159.335053 250.519836,155.763992 244.139832,155.763992 C242.572629,155.763992 241.478175,155.913632 239.78789,156.312902 L239.776001,148.852624 C240.826397,148.702985 242.627876,148.571526 244.611181,148.571526 C246.487489,148.571526 248.864518,148.674316 250.949925,148.928842 L251.095386,144.605391 C248.724651,144.073962 245.286736,143.749511 242.619484,143.749511 C239.990696,143.749511 235.903101,144.406805 233.956861,144.933338 L233.954763,172.509586 C236.989163,173.619293 239.950135,174.127647 242.99013,174.127647 C249.946384,174.127647 253.556335,170.440511 253.556335,164.51788 L253.556335,164.51788 Z M247.706424,164.935331 C247.706424,167.730226 246.159502,169.569248 243.309725,169.569248 C242.183101,169.569248 241.259284,169.572744 239.78789,169.171376 L239.78789,160.711173 C240.437569,160.604188 241.779587,160.395812 243.309725,160.451053 C246.207057,160.560835 247.706424,161.91388 247.706424,164.935331 L247.706424,164.935331 Z M32.7590878,128.684211 L24.5307492,153.38515 L41.1182013,153.38515 L32.8618895,128.684211 L32.7590878,128.684211 Z M3.92213898,194.455489 C3.41162673,194.455489 2.99972027,194.877835 2.99972027,195.400173 L2.99972027,205.903579 C2.99972027,206.428015 3.41162673,206.847564 3.92213898,206.847564 L61.6946423,206.847564 C62.2009586,206.847564 62.6093684,206.428015 62.6093684,205.903579 L62.6093684,195.400173 C62.6093684,194.877835 62.2009586,194.455489 61.6946423,194.455489 L3.92213898,194.455489 L3.92213898,194.455489 Z M32.808041,114 C39.1307002,114 41.1182013,118.527632 42.7791145,123.060857 C43.484041,124.977496 59.9064508,169.943346 60.3973817,171.292195 C60.5351501,171.664195 60.444237,172.285827 59.8644909,172.507489 C59.2826468,172.728451 50.7480009,176.047083 50.2773506,176.223992 C49.8053016,176.401602 49.2738094,176.139383 49.1003751,175.670188 C48.9255421,175.203789 45.3890209,165.402429 44.9890031,164.304609 L20.6571501,164.304609 C20.2571323,165.402429 16.6835465,175.221271 16.5185042,175.670188 C16.3548606,176.119105 15.843649,176.42188 15.3450254,176.223992 C14.8443038,176.024707 6.27189399,172.703977 5.76557773,172.507489 C5.27464677,172.320789 5.04946192,171.763489 5.22359555,171.292195 C5.82781826,169.604211 21.9991679,125.362083 22.8278762,123.060857 C24.4272481,118.600353 26.4881791,114 32.808041,114 L32.808041,114 Z"/>
</svg>
