<?xml version="1.0" encoding="utf-8"?>
<!-- Generator: Adobe Illustrator 23.0.1, SVG Export Plug-In . SVG Version: 6.00 Build 0)  -->
<svg version="1.1" id="Layer_1" xmlns="http://www.w3.org/2000/svg" xmlns:xlink="http://www.w3.org/1999/xlink" x="0px" y="0px"
	 viewBox="0 0 224 86.7" style="enable-background:new 0 0 224 86.7;" xml:space="preserve">
<style type="text/css">
	.st0{fill-rule:evenodd;clip-rule:evenodd;fill:#564D4B;}
	.st1{filter:url(#Adobe_OpacityMaskFilter);}
	.st2{fill-rule:evenodd;clip-rule:evenodd;fill:#FFFFFF;}
	.st3{mask:url(#mask-2_1_);fill-rule:evenodd;clip-rule:evenodd;fill:#564E4B;}
	.st4{filter:url(#Adobe_OpacityMaskFilter_1_);}
	.st5{mask:url(#mask-4_1_);fill-rule:evenodd;clip-rule:evenodd;fill:#C22218;}
	.st6{fill-rule:evenodd;clip-rule:evenodd;fill:#9FC419;}
	.st7{fill-rule:evenodd;clip-rule:evenodd;fill:#F9CD00;}
	.st8{fill-rule:evenodd;clip-rule:evenodd;fill:#58B2E4;}
</style>
<g id="Guideline">
	<g transform="translate(-390.000000, -169.000000)">
		<g id="Logo" transform="translate(390.000000, 169.000000)">
			<path id="Fill-1" class="st0" d="M5.3,48.8v9.3h16.8c1.5,0,2.7-1.2,2.7-2.7v-3.9c0-1.5-1.2-2.7-2.7-2.7H5.3z M5.3,43.4h16.8
				c4.4,0,8,3.6,8,8v3.9c0,4.4-3.6,8-8,8H5.3H0V30h28.1v5.4H5.3V43.4z"/>
			<path id="Fill-3" class="st0" d="M80,44.7v-9.3h16.8c1.5,0,2.7,1.2,2.7,2.7V42c0,1.5-1.2,2.7-2.7,2.7H80z M80,50h16.8
				c4.4,0,8-3.6,8-8v-3.9c0-4.4-3.6-8-8-8H80h-5.3v33.4H80V50z"/>
			<path id="Fill-5" class="st0" d="M119,30h20.9v5.4H119c-1.5,0-2.7,1.2-2.7,2.7v17.3c0,1.5,1.2,2.7,2.7,2.7h0h20.9v5.4H119
				c-4.4,0-8-3.6-8-8V38.1C111.1,33.6,114.6,30,119,30"/>
			<path id="Fill-7" class="st0" d="M42.4,54.2h17.4l3.9,9.3h5.9L54.1,30h-6L32.6,63.4h5.9L42.4,54.2z M51.1,36l6.1,12.8H45L51.1,36
				z"/>
			<path id="Fill-9" class="st0" d="M94.1,77.8v-3.7h6.4c0.7,0,1.2,0.6,1.2,1.2v1.2c0,0.7-0.6,1.2-1.2,1.2H94.1z M94.1,80.8h7
				c2.1,0,3.7-1.7,3.7-3.7v-2.4c0-2-1.7-3.7-3.7-3.7h-7H91c0,4.9,0,10.8,0,15.8h3.1C94.1,84.7,94.1,82.9,94.1,80.8z"/>
			<polygon id="Fill-11" class="st0" points="74.7,71 87.8,71 87.8,74.1 77.7,74.1 77.7,86.8 74.7,86.8 			"/>
			<path id="Fill-13" class="st0" d="M110.2,86.8h3.4C115.4,83.9,123,71,123,71h-3.5l-4.8,8.4l-5.2-8.4H106l6.6,11.4
				C112.3,83.1,110.8,85.7,110.2,86.8"/>
			<polygon id="Fill-15" class="st0" points="124.2,71 124.2,86.8 127.3,86.8 127.3,74.1 136.8,74.1 136.8,84.2 136.8,86.8 
				139.9,86.8 139.9,71 			"/>
			<path id="Fill-17" class="st0" d="M219.8,33.2h-1.4v-1.5h1.6c0.4,0,0.6,0.1,0.8,0.2c0.2,0.1,0.3,0.3,0.3,0.5c0,0.1,0,0.3-0.1,0.4
				c-0.1,0.1-0.2,0.2-0.4,0.3C220.3,33.2,220.1,33.2,219.8,33.2 M220.7,33.9c-0.1-0.1-0.2-0.1-0.4-0.2c0.5-0.1,0.8-0.2,1.1-0.4
				c0.2-0.2,0.3-0.5,0.3-0.8c0-0.2-0.1-0.5-0.2-0.7c-0.1-0.2-0.3-0.3-0.6-0.4c-0.2-0.1-0.6-0.1-1-0.1h-2.2v4.4h0.7v-2h0.8
				c0.2,0,0.3,0,0.4,0c0.1,0,0.2,0.1,0.3,0.1c0.1,0.1,0.2,0.2,0.3,0.3c0.1,0.1,0.3,0.3,0.5,0.6l0.7,0.9h0.8l-0.9-1.2
				C221.1,34.3,220.9,34.1,220.7,33.9"/>
			<path id="Fill-19" class="st0" d="M219.6,37.7c-2.1,0-3.8-1.7-3.8-3.8s1.7-3.8,3.8-3.8c2.1,0,3.8,1.7,3.8,3.8
				S221.7,37.7,219.6,37.7 M219.6,29.4c-2.4,0-4.4,2-4.4,4.4s2,4.4,4.4,4.4c2.4,0,4.4-2,4.4-4.4S222,29.4,219.6,29.4"/>
			<g id="Group-23" transform="translate(79.372549, 34.673913)">
				<defs>
					<filter id="Adobe_OpacityMaskFilter" filterUnits="userSpaceOnUse" x="79.9" y="34.6" width="22.4" height="17.5">
						<feColorMatrix  type="matrix" values="1 0 0 0 0  0 1 0 0 0  0 0 1 0 0  0 0 0 1 0"/>
					</filter>
				</defs>
				<mask maskUnits="userSpaceOnUse" x="79.9" y="34.6" width="22.4" height="17.5" id="mask-2_1_">
					<g class="st1">
						<polygon id="path-1_1_" class="st2" points="79.9,34.6 102.3,34.6 102.3,52.1 79.9,52.1 						"/>
					</g>
				</mask>
				<path id="Fill-21" class="st3" d="M102.1,50.6c0.3,0.2,0.3,0.6-0.1,0.8l-1.3,0.6c-0.4,0.2-0.9,0.2-1.3,0l-18.8-9.5
					c-0.4-0.2-0.6-0.7-0.6-1.1v-6.3c0-0.4,0.3-0.6,0.6-0.3L102.1,50.6z"/>
			</g>
			<g id="Group-26" transform="translate(82.823529, 0.000000)">
				<defs>
					<filter id="Adobe_OpacityMaskFilter_1_" filterUnits="userSpaceOnUse" x="83.1" y="0" width="45.5" height="73.8">
						<feColorMatrix  type="matrix" values="1 0 0 0 0  0 1 0 0 0  0 0 1 0 0  0 0 0 1 0"/>
					</filter>
				</defs>
				<mask maskUnits="userSpaceOnUse" x="83.1" y="0" width="45.5" height="73.8" id="mask-4_1_">
					<g class="st4">
						<polygon id="path-3_1_" class="st2" points="83.1,0 128.5,0 128.5,73.8 83.1,73.8 						"/>
					</g>
				</mask>
				<path id="Fill-24" class="st5" d="M93.2,21.1c-0.4,0.2-0.7,0.7-0.8,1.1l-9.3,47.4c-0.1,0.4,0.1,0.9,0.5,1.2l4,2.9
					c0.3,0.2,0.8,0.1,1-0.2l39.9-73.1c0.2-0.4,0.1-0.5-0.3-0.3L93.2,21.1z"/>
			</g>
			<path id="Fill-27" class="st6" d="M160,30.9c-0.3,0.2-0.6,0.8-0.6,1.2V64c0,0.4,0.3,0.9,0.6,1.2l2.6,1.9c0.3,0.2,0.6,0.1,0.7-0.3
				l6.7-42.7c0.1-0.4-0.2-0.5-0.5-0.3L160,30.9z"/>
			<path id="Fill-29" class="st7" d="M173.9,75c-0.2,0.4-0.1,0.8,0.2,1.1l4.1,2.9c0.3,0.2,0.9,0.2,1.2,0l28.5-24.1
				c0.3-0.3,0.5-0.8,0.4-1.2l-7-24c-0.1-0.4-0.4-0.4-0.6-0.1L173.9,75z"/>
			<path id="Fill-31" class="st8" d="M207.1,62.6c-0.1-0.4-0.5-0.5-0.8-0.2L182.2,81c-0.3,0.3-0.3,0.7,0,0.9l2.8,2.1
				c0.3,0.2,0.9,0.3,1.3,0.1l21.5-9c0.4-0.2,0.6-0.6,0.4-1L207.1,62.6z"/>
		</g>
	</g>
</g>
</svg>
