<svg xmlns="http://www.w3.org/2000/svg" width="320" height="320" viewBox="0 0 320 320">
  <path d="M87.8579471,219 L73.6214857,204.79528 L59.4552997,218.817815 L46,205.446054 C48.8111193,202.576704 51.2984922,199.912187 53.9326022,197.40102 C55.2165686,196.244498 55.9106608,194.572421 55.8224422,192.848372 C55.7307021,173.371379 55.6801893,153.894196 55.6709038,134.416822 C55.6647298,131.475139 55.5660063,128.530581 55.6679022,125.592808 C55.7355238,123.64311 55.2773946,122.113972 53.7438122,120.761745 C51.7683106,119.019882 50.0027017,117.039565 48.163163,115.146002 C47.4658815,114.428235 46.8144234,113.666117 46.0217738,112.791431 L59.7704744,99.5407031 C63.5778765,102.700336 66.9473981,106.753935 71.0827499,110.455087 L82.6564763,99 L102.504329,118.935948 L90.3088738,131.096908 C93.2883575,134.090177 95.9565284,137.005644 98.8845516,139.632534 C100.955366,141.490375 101.673598,143.508435 101.642862,146.2768 C101.437874,164.740319 101.341839,183.204877 101.354757,201.670474 C101.354568,204.409456 100.626929,206.417651 98.5422771,208.306306 C94.9442736,211.566035 91.6536967,215.163882 87.8579471,219 Z M79.5566721,147.872779 C79.5740656,165.555019 79.233786,182.493995 79.4086601,200.095267 C84.2937788,194.428383 84.2975552,194.999291 84.2937788,192.304618 C84.2787768,181.598282 84.1497993,164.555385 84.0858749,154.935205 C84.079408,153.961465 84.0269958,152.793524 83.5078279,152.060003 C82.5443187,150.698679 81.2202509,149.591616 79.5566721,147.872779 Z M76.9500891,145.293846 L73.224676,141.666415 C73.224676,143.570507 73.2310086,144.662912 73.2237242,145.755218 C73.1170391,161.772868 73.04763,179.502657 72.8654411,195.519448 C72.8654411,197.130675 74.6378525,198.14644 76.9500891,199.797232 L76.950083,145.29384 L76.9500891,145.293846 Z M76.7679856,132.782917 L76.7679856,120.747452 L73.3597238,117.414617 L73.3597238,136.566834 L76.7679856,132.782917 Z M79.7598296,130.143836 L82.858438,126.963188 L79.7598296,124.035553 L79.7598296,130.143836 Z M212.153196,113.540517 C220.647743,122.121151 229.259709,130.82038 237.989093,139.638203 C233.86759,144.936004 229.958231,149.961126 225.957048,155.104255 C228.080782,157.338396 228.988724,158.089948 230.521111,159.583967 C233.800304,162.781052 234.997804,166.239609 234.794305,170.627325 C234.451439,178.02047 234.564914,185.436866 234.586877,192.843177 C234.665761,194.565351 233.977177,196.234102 232.70606,197.401252 C226.546833,203.442365 220.496762,209.594317 214.400441,215.699482 C213.547222,216.55395 212.65552,217.370132 211.57759,218.398711 L185.320309,192.425522 C189.405915,187.171653 193.423356,182.005462 197.529406,176.725292 C194.394912,173.775686 191.37254,170.931565 188.597659,168.320345 L188.597659,136.887218 C196.376551,129.177306 204.077798,121.544318 212.15316,113.540511 L212.153196,113.540517 Z M213.388003,171.122654 C213.388003,173.06603 213.234262,186.333274 213.234262,191.668995 C213.234262,192.888028 213.234262,192.677599 217.556086,196.976508 C217.616819,195.682645 217.515149,181.001176 217.515149,174.598853 C217.515143,173.974015 217.146989,173.913751 213.387991,171.122647 L213.388003,171.122654 Z M209.251034,139.237423 C208.030589,137.692671 207.224847,136.672807 206.092339,135.239356 L206.092339,157.647655 C207.027717,158.516707 207.958014,159.381016 209.251034,160.582341 L209.251034,139.23741 L209.251034,139.237423 Z M203.714586,183.342867 L211.023134,190.72133 C211.023134,185.046444 211.023134,175.58842 211.023134,173.863012 C208.887114,176.625506 206.065404,180.302513 203.714555,183.342861 L203.714586,183.342867 Z M212.604773,157.84669 C213.133068,157.173244 217.419409,151.684465 219.271607,149.344552 C216.975196,146.9425 214.846814,144.716209 212.604773,142.371034 L212.604773,157.84669 Z M147.988551,127.212049 L161.737264,113.301893 C162.56689,113.985052 163.214572,114.436261 163.765299,114.984516 C169.738958,120.931196 175.679153,126.911523 181.675903,132.834831 C182.806204,133.853527 183.427146,135.319137 183.372041,136.838227 C183.209149,155.301244 183.137544,173.765065 182.972047,192.228052 C182.956447,193.968661 183.283732,195.346141 184.579614,196.586915 C186.778802,198.692563 188.858085,200.923586 190.970977,203.117992 C191.516043,203.684077 191.998631,204.310066 192.547497,204.952516 C188.065381,209.412047 183.70151,213.753937 179.146275,218.286216 L165.285332,204.707242 C160.612473,209.272989 156.014215,213.765861 151.314549,218.357806 C146.88673,213.76731 142.671323,209.397011 138.455922,205.026713 C138.318489,205.125627 137.877119,203.725998 137.869883,202.926593 C137.76695,191.566591 137.725733,180.205693 137.544575,168.847011 C137.444091,166.722173 138.303248,164.66429 139.885687,163.239502 C147.174616,156.027944 154.33248,148.684418 161.828032,141.094843 L147.988551,127.212049 Z M162.107687,152.799437 L162.107687,198.914587 C165.498159,196.481112 165.811674,196.547082 165.811674,195.506757 C165.68388,182.033292 165.564481,166.177263 165.433875,152.703823 C165.424437,151.730149 165.349348,150.757103 165.288724,149.433236 L162.107687,152.799437 Z M159.109639,198.995921 L159.109639,155.801743 C157.735257,157.01085 156.468519,158.125305 155.246371,159.200506 C155.246371,160.231149 155.250252,161.036509 155.245761,161.841828 C155.191257,171.654496 155.294446,184.686532 154.995725,194.491813 C154.995768,196.014235 156.514672,196.889341 159.109639,198.995921 Z M131.393627,161.567183 C131.393627,167.027864 131.410642,172.297336 131.389411,177.566655 C131.361634,184.462614 131.212268,191.358317 131.212268,198.253089 C131.212268,201.938986 130.607438,201.025534 134.587243,205.657165 C130.203503,210.023329 125.847972,214.361377 121.25313,218.937782 C119.077272,216.811483 117.062761,214.855976 115.063424,212.885134 C113.257415,211.104882 111.526264,209.244112 109.652451,207.538854 C108.251562,206.35368 107.474072,204.591611 107.543805,202.759913 C107.543469,187.74865 107.426974,172.737437 107.372426,157.726084 C107.344051,149.917171 107.36743,142.108064 107.36743,134.384778 L128.090964,113.951973 L153.584721,139.407112 C151.509477,141.896721 148.940609,144.1624 146.555461,146.589371 C144.064934,149.123545 141.534886,151.619293 139.006271,154.115844 C136.550745,156.540184 134.075091,158.944264 131.393627,161.567183 Z M124.91127,168.653299 L124.91127,195.491259 C126.775407,197.320977 126.565642,197.194111 128.639544,198.995921 L128.639544,164.917539 L124.91127,168.653299 Z M125.011604,136.981633 L125.011604,155.886974 L128.617191,152.50754 L128.617191,140.709044 L125.011604,136.981633 Z M131.51108,143.078479 C131.545452,145.592825 131.43482,147.493007 131.614794,149.917804 L134.924027,146.416765 L131.51108,143.078479 Z M259.288283,197.432364 C257.539976,195.86329 256.939203,194.138752 256.953015,191.835334 C257.066141,172.982242 257.110254,154.128832 257.085355,135.275102 C257.013855,133.35694 257.803327,131.50693 259.238555,130.229402 C263.322446,126.281125 267.272846,122.194897 271.253999,118.141652 C271.878394,117.395196 272.461271,116.615093 273,115.804863 L257.146771,115.804863 C257.146771,112.788319 257.207469,110.176052 257.129848,107.567888 C257.051001,104.918601 257.538798,102.225353 256.847428,99.6178046 C251.225446,105.242664 245.730507,110.740419 240.235587,116.238175 C239.731146,117.060386 239.730366,118.165913 239.731256,119.271447 C239.739151,129.004428 239.747678,138.737409 239.756837,148.47039 C239.786029,166.311254 239.842145,184.152101 239.83131,201.992929 C239.728589,203.815968 240.454021,205.588212 241.806293,206.817853 C245.049326,209.880484 248.114337,213.130366 251.278877,216.276882 C251.965946,216.960023 252.766258,217.529682 253.593121,218.217055 L266.80717,204.929655 C264.150822,202.255711 261.833949,199.717049 259.288277,197.432364 L259.288283,197.432364 Z"/>
</svg>
