<?xml version="1.0" encoding="UTF-8"?>
<svg width="171px" height="40px" viewBox="0 0 171 40" version="1.1" xmlns="http://www.w3.org/2000/svg" xmlns:xlink="http://www.w3.org/1999/xlink">
    <!-- Generator: Sketch 49.3 (51167) - http://www.bohemiancoding.com/sketch -->
    <title>chulakov-full-3</title>
    <desc>Created with Sketch.</desc>
    <defs></defs>
    <g id="----/styleguide" stroke="none" stroke-width="1" fill="none" fill-rule="evenodd">
        <g id="logotypes/chulakov/full">
            <rect id="Rectangle" fill="#FFF45F" x="0" y="0" width="171.428571" height="40"></rect>
            <path d="M18.6754286,28.7368571 C17.1418971,28.7368571 15.809958,28.527383 14.6795714,28.1084286 C13.5491848,27.6894741 12.6124799,27.1005752 11.8694286,26.3417143 C11.1263772,25.5828533 10.5730494,24.6698625 10.2094286,23.6027143 C9.84580771,22.5355661 9.664,21.353816 9.664,20.0574286 L9.664,19.8677143 C9.664,18.5555172 9.88533112,17.3658625 10.328,16.2987143 C10.7706689,15.2315661 11.3832818,14.3225276 12.1658571,13.5715714 C12.9484325,12.8206153 13.8772327,12.2396211 14.9522857,11.8285714 C16.0273387,11.4175218 17.1893271,11.212 18.4382857,11.212 C19.5765771,11.212 20.6199953,11.3463796 21.5685714,11.6151429 C22.5171476,11.8839061 23.3392346,12.2909973 24.0348571,12.8364286 C24.7304797,13.3818599 25.2917122,14.0735196 25.7185714,14.9114286 C26.1454307,15.7493375 26.4062852,16.7453276 26.5011429,17.8994286 L20.952,17.8994286 C20.872952,17.1089484 20.6279068,16.5042402 20.2168571,16.0852857 C19.8058075,15.6663312 19.2208609,15.4568571 18.462,15.4568571 C17.4818046,15.4568571 16.7150504,15.8283772 16.1617143,16.5714286 C15.6083782,17.3144799 15.3317143,18.4053261 15.3317143,19.844 L15.3317143,20.0337143 C15.3317143,21.4565785 15.6083782,22.5434724 16.1617143,23.2944286 C16.7150504,24.0453847 17.5134234,24.4208571 18.5568571,24.4208571 C19.3157181,24.4208571 19.9480927,24.2192877 20.454,23.8161429 C20.9599073,23.412998 21.2602852,22.7845757 21.3551429,21.9308571 L26.7145714,21.9308571 C26.6355234,23.0533389 26.3865259,24.037472 25.9675714,24.8832857 C25.548617,25.7290995 24.9834321,26.4365686 24.272,27.0057143 C23.5605679,27.57486 22.7305762,28.0056652 21.782,28.2981429 C20.8334238,28.5906205 19.7979104,28.7368571 18.6754286,28.7368571 Z M30.3734286,11.4728571 L35.7565714,11.4728571 L35.7565714,17.7334286 L40.7365714,17.7334286 L40.7365714,11.4728571 L46.1197143,11.4728571 L46.1197143,28.4285714 L40.7365714,28.4285714 L40.7365714,21.9071429 L35.7565714,21.9071429 L35.7565714,28.4285714 L30.3734286,28.4285714 L30.3734286,11.4728571 Z M58.5765714,28.7368571 C56.0786542,28.7368571 54.1617686,28.1281966 52.8258571,26.9108571 C51.4899457,25.6935177 50.822,23.867536 50.822,21.4328571 L50.822,11.4728571 L56.1814286,11.4728571 L56.1814286,21.2194286 C56.1814286,21.7727647 56.2169996,22.2549503 56.2881429,22.666 C56.3592861,23.0770497 56.4818087,23.4209034 56.6557143,23.6975714 C56.8296199,23.9742395 57.0746651,24.1797612 57.3908571,24.3141429 C57.7070492,24.4485245 58.1022833,24.5157143 58.5765714,24.5157143 C59.5251476,24.5157143 60.1575222,24.2430027 60.4737143,23.6975714 C60.7899063,23.1521401 60.948,22.3181961 60.948,21.1957143 L60.948,11.4728571 L66.3548571,11.4728571 L66.3548571,21.3854286 C66.3548571,22.6660064 66.1730494,23.7687097 65.8094286,24.6935714 C65.4458077,25.6184332 64.9240986,26.3812351 64.2442857,26.982 C63.5644728,27.5827649 62.7463381,28.0254271 61.7898571,28.31 C60.8333762,28.5945729 59.7622916,28.7368571 58.5765714,28.7368571 Z M71.0334286,11.4728571 L76.4165714,11.4728571 L76.4165714,24.2785714 L82.5822857,24.2785714 L82.5822857,28.4285714 L71.0334286,28.4285714 L71.0334286,11.4728571 Z M90.7942857,11.4728571 L97.7425714,11.4728571 L103.054571,28.4285714 L97.3631429,28.4285714 L96.5805714,25.6065714 L91.2211429,25.6065714 L90.4622857,28.4285714 L85.4585714,28.4285714 L90.7942857,11.4728571 Z M92.2408571,21.9545714 L95.5845714,21.9545714 L93.9245714,15.8125714 L92.2408571,21.9545714 Z M106.523714,11.4728571 L111.906857,11.4728571 L111.906857,17.8994286 L116.602286,11.4728571 L122.175143,11.4728571 L116.222857,19.2985714 L122.507143,28.4285714 L116.317714,28.4285714 L111.906857,21.6462857 L111.906857,28.4285714 L106.523714,28.4285714 L106.523714,11.4728571 Z M132.806,24.5157143 C133.865243,24.5157143 134.707092,24.1244325 135.331571,23.3418571 C135.956051,22.5592818 136.268286,21.4565785 136.268286,20.0337143 L136.268286,19.844 C136.268286,18.4053261 135.952098,17.3065752 135.319714,16.5477143 C134.68733,15.7888533 133.833624,15.4094286 132.758571,15.4094286 C131.715138,15.4094286 130.881194,15.784901 130.256714,16.5358571 C129.632235,17.2868133 129.32,18.3895165 129.32,19.844 L129.32,20.0337143 C129.32,21.4881977 129.632235,22.5988057 130.256714,23.3655714 C130.881194,24.1323372 131.730947,24.5157143 132.806,24.5157143 Z M132.663714,28.7368571 C131.272469,28.7368571 130.023529,28.527383 128.916857,28.1084286 C127.810185,27.6894741 126.869528,27.0966229 126.094857,26.3298571 C125.320187,25.5630914 124.727335,24.6461482 124.316286,23.579 C123.905236,22.5118518 123.699714,21.3380064 123.699714,20.0574286 L123.699714,19.8677143 C123.699714,18.5555172 123.932902,17.3658625 124.399286,16.2987143 C124.865669,15.2315661 125.505948,14.3225276 126.320143,13.5715714 C127.134337,12.8206153 128.094756,12.2396211 129.201429,11.8285714 C130.308101,11.4175218 131.493803,11.212 132.758571,11.212 C134.054959,11.212 135.260423,11.4056647 136.375,11.793 C137.489577,12.1803353 138.453948,12.7376154 139.268143,13.4648571 C140.082337,14.1920989 140.718664,15.0813757 141.177143,16.1327143 C141.635621,17.1840529 141.864857,18.3816123 141.864857,19.7254286 L141.864857,19.9151429 C141.864857,21.2431495 141.647478,22.4486136 141.212714,23.5315714 C140.77795,24.6145292 140.157433,25.5393771 139.351143,26.3061429 C138.544853,27.0729086 137.576529,27.6697122 136.446143,28.0965714 C135.315756,28.5234307 134.054959,28.7368571 132.663714,28.7368571 Z M144.432857,11.4728571 L150.242857,11.4728571 L153.396857,22.832 L156.550857,11.4728571 L161.578286,11.4728571 L156.100286,28.4285714 L150.029429,28.4285714 L144.432857,11.4728571 Z" id="CHULAKOV" fill="#000000"></path>
        </g>
    </g>
</svg>