<svg xmlns="http://www.w3.org/2000/svg" width="320" height="320" viewBox="0 0 320 320">
  <path d="M194.360369,129.459042 C191.452359,126.921224 187.27057,126.979323 184.871173,127.716088 C186.442551,125.795646 190.104822,124.219965 191.182338,124.02907 C192.003303,124.335523 194.360369,126.745652 194.360369,129.459042 L194.360369,129.459042 Z M203.644966,118.950243 C201.732375,108.76705 177.959036,115.51541 165.986422,111.189948 C165.75745,114.158715 169.672425,118.915128 173.417434,120.674682 C167.016476,126.205528 161.269724,137.348302 160.108829,150.96122 C158.953065,137.348302 153.205671,126.205528 146.804713,120.67532 C150.549081,118.915766 154.467904,114.159354 154.235084,111.191224 C142.263111,115.516687 118.489131,108.768965 116.573333,118.952158 C116.170548,121.108185 117.212146,124.391706 118.337124,125.336605 C118.538517,124.653469 119.589737,122.418912 122.90374,121.918372 C139.6527,119.399069 153.636677,145.09519 141.013706,155.4846 C140.821292,155.644211 140.930326,155.934704 141.190085,155.934704 L179.035269,155.934704 C179.291821,155.934704 179.400855,155.643573 179.211007,155.485239 C166.584828,145.096467 180.568806,119.400346 197.318407,121.919649 C200.634335,122.420189 201.682989,124.654107 201.885023,125.337243 C203.010001,124.392345 204.0516,121.108824 203.645607,118.952796 L203.644966,118.950243 Z M207.719002,95.5799755 C207.417554,94.6178394 217.238985,94.5935785 217.238985,100.713071 C217.238985,104.813162 211.363957,106.755311 211.363957,111.011183 C211.363957,112.992915 213.506161,114.446015 214.163574,114.446015 C212.649921,107.614657 218.906569,111.189948 220.596602,112.466837 C217.238985,103.279618 224.796349,103.337078 224.052349,99.1246203 C223.534757,96.1813904 216.965116,97.0701053 214.588167,95.5799755 C210.369179,92.9368146 205.377971,82.6495557 202.088981,92.9368146 C208.22056,98.603011 204.652571,106.944291 196.868159,106.944291 C196.868159,106.944291 196.825187,108.166912 196.89638,108.263956 C206.180977,107.811937 209.417373,101.018886 207.719002,95.5799755 L207.719002,95.5799755 Z M99.3984976,112.466837 C101.087889,111.189948 107.343896,107.614657 105.83409,114.446015 C106.488296,114.446015 108.630501,112.992915 108.630501,111.011183 C108.630501,106.755311 102.755473,104.813162 102.755473,100.713071 C102.755473,94.5935785 112.576262,94.6178394 112.275455,95.5799755 C110.57965,101.019524 113.816047,107.812575 123.100643,108.263956 C123.169271,108.166912 123.126298,106.943652 123.126298,106.943652 C115.345093,106.943652 111.777104,98.603011 117.905477,92.9361761 C114.616487,82.6495557 109.625279,92.9361761 105.406291,95.579337 C103.0287,97.0701053 96.4590596,96.1807519 95.9421084,99.1246203 C95.2013162,103.338355 102.756115,103.280895 99.399139,112.468114 L99.3984976,112.466837 Z M125.761082,129.459042 C128.671658,126.921224 132.854729,126.979323 135.250278,127.716088 C133.685314,125.795646 130.016628,124.219965 128.941678,124.02907 C128.120713,124.335523 125.76044,126.745652 125.76044,129.459042 L125.761082,129.459042 Z M164.526003,72.4970086 L159.99787,67 L155.468455,72.4970086 L159.996588,78.2813173 L164.526644,72.4970086 L164.526003,72.4970086 Z M190.379974,89.1176386 L187.160253,85.2116341 L183.941816,89.1176386 L187.159612,92.9355377 L190.380615,89.1176386 L190.379974,89.1176386 Z M216.503323,202.034239 L212.42159,197.733676 L208.338574,202.033601 L212.42159,205.806809 L216.503965,202.033601 L216.503323,202.034239 Z M136.055208,89.1176386 L132.835487,85.2116341 L129.617691,89.1176386 L132.836129,92.9355377 L136.055849,89.1176386 L136.055208,89.1176386 Z M126.83026,108.264594 L138.84328,108.264594 C148.943069,108.264594 153.487236,102.093388 154.860428,96.7419448 L165.137237,96.7419448 C166.51107,102.093388 171.052672,108.263956 181.155667,108.263956 L193.168688,108.263956 C193.168688,108.263956 195.269844,105.426069 195.797057,104.020852 C197.694255,98.9643707 195.269844,96.6053176 191.732641,96.6053176 L187.159612,100.730947 L182.587865,96.6065945 C179.050662,96.6065945 176.626251,98.9643707 178.523449,104.021491 C178.76589,104.667597 179.345697,105.617603 179.894717,106.452688 C175.632115,105.869788 170.190659,102.964865 168.997695,96.7419448 C168.997695,96.7419448 172.146863,91.7620764 172.938325,89.7465066 C175.777708,82.4982443 172.150712,79.535861 166.846511,79.535861 L159.998512,87.5483416 L153.150513,79.535861 C147.846312,79.535861 144.219957,82.4982443 147.062547,89.7465066 C147.849519,91.7620764 151.002536,96.7425832 151.002536,96.7425832 C149.806365,102.964865 144.366191,105.869788 140.103589,106.453327 C140.655175,105.616964 141.232416,104.667597 141.473574,104.020852 C143.367565,98.9643707 140.949568,96.6059561 137.409799,96.6059561 L132.83677,100.731586 L128.263741,96.607233 C124.724614,96.607233 122.306616,98.9650091 124.200607,104.022129 C124.727821,105.426708 126.832184,108.265233 126.832184,108.265233 L126.83026,108.264594 Z M251.025526,145.330138 C248.706942,146.498491 235.103944,152.841439 217.67897,150.495155 C217.859534,149.667864 218.012692,148.834881 218.138197,147.997559 C229.735605,146.616604 239.162587,144.658494 245.170381,141.332197 C252.01838,137.537921 255.012976,128.480306 251.556587,121.742799 C251.466794,121.572973 251.218581,121.542328 251.094795,121.685339 C249.200162,123.856051 237.290403,136.752634 218.52559,140.762066 C218.477726,139.794296 218.388923,138.828963 218.259418,137.868635 C227.373408,132.724048 236.270611,126.796089 240.508841,121.375694 C246.912365,113.180618 246.323579,102.726725 240.2292,97.396989 C240.165922,97.3427795 240.082238,97.3183563 239.999572,97.329972 C239.916906,97.3415877 239.843283,97.3881145 239.797552,97.4576413 C237.869568,100.624327 219.821175,129.66079 200.006425,142.19729 C199.764693,142.351131 199.520948,142.501817 199.275253,142.649309 C198.706992,142.992792 198.644778,143.72828 199.127736,144.164338 C201.41361,146.225237 202.83298,149.093131 202.83298,152.277693 C202.83298,157.814923 198.546006,162.419386 192.878785,163.418552 C189.998995,163.973999 185.842862,163.812472 181.848997,162.497915 C181.669411,162.440455 181.483411,162.558567 181.483411,162.73797 L181.483411,180.272214 C181.483411,180.554407 181.914418,180.624636 182.015756,180.355212 C184.444015,173.952889 191.710193,172.593002 194.888224,172.593002 C196.031802,179.434575 198.074593,185.10141 200.727976,188.151898 C205.049585,193.108144 212.106032,193.038554 215.165408,189.612021 C215.21558,189.555121 215.23702,189.478588 215.223667,189.404054 C215.210314,189.329521 215.163619,189.265083 215.09678,189.228954 C213.298996,188.201059 203.013208,181.914294 200.954382,171.612989 C201.762511,171.339944 202.552546,171.016462 203.319787,170.644469 C206.640204,176.114024 211.472991,180.985357 215.363594,182.846423 C221.899241,185.966502 227.882021,184.448919 230.535404,179.880848 C230.631611,179.71996 230.513597,179.519488 230.318618,179.501612 C226.276009,179.180474 213.869823,175.640937 208.587429,167.018103 C209.198335,166.465745 209.781827,165.88407 210.335827,165.275149 C215.86451,169.464623 223.679067,173.167602 229.274454,173.923521 C235.821646,174.809682 243.239831,172.729629 243.419417,165.151291 C243.422624,164.999979 243.28601,164.875483 243.124383,164.884421 C240.796179,165.024879 225.387058,165.692053 214.406657,159.418058 C214.788181,158.696166 215.143941,157.961069 215.473269,157.214147 C215.473269,157.214147 232.064451,161.118236 239.925828,159.825385 C247.737819,158.542112 252.313414,152.745034 251.430236,145.532525 C251.40458,145.35376 251.194208,145.24714 251.026167,145.332053 L251.025526,145.330138 Z M104.523113,157.211593 C104.853296,157.958755 105.209911,158.694064 105.592291,159.416142 C94.6150962,165.686946 79.2123895,165.024879 76.8739232,164.882506 C76.7097303,164.873567 76.5724752,165.00381 76.5763235,165.152568 C76.7591164,172.728352 84.1747356,174.807766 90.7219282,173.921605 C96.3147494,173.165687 104.133154,169.462708 109.659914,165.273872 C110.214708,165.88204 110.798163,166.463678 111.408312,167.016826 C106.123352,175.639021 93.7190903,179.179197 89.6771225,179.500335 C89.481502,179.519488 89.3673366,179.719321 89.4603365,179.880209 C92.1137197,184.448281 98.0964991,185.965864 104.635354,182.845785 C108.522108,180.984719 113.354896,176.113386 116.67403,170.64383 C117.44217,171.014801 118.232567,171.338255 119.040717,171.612351 C116.981891,181.913656 106.696103,188.199143 104.898319,189.228954 C104.831862,189.265424 104.785508,189.329822 104.772185,189.404188 C104.758862,189.478555 104.779995,189.554933 104.829691,189.612021 C107.889067,193.037915 114.94808,193.107506 119.269689,188.15126 C121.923072,185.100771 123.963297,179.433936 125.106234,172.592363 C128.287472,172.592363 135.551084,173.952251 137.978702,180.353935 C138.083247,180.623997 138.514253,180.553768 138.514253,180.270937 L138.514253,162.737332 C138.514253,162.558567 138.325047,162.439816 138.145461,162.497276 C134.152879,163.812472 129.995463,163.972083 127.11888,163.416637 C121.449093,162.418748 117.161477,157.814285 117.161477,152.277693 C117.161477,149.094407 118.585338,146.223322 120.86608,144.163061 C121.353528,143.728918 121.287466,142.99343 120.723694,142.649947 C120.475951,142.502554 120.23007,142.352082 119.986109,142.198567 C100.182904,129.66909 82.1447724,100.652418 80.2001125,97.4653026 C80.1539335,97.3939989 80.0790347,97.3460568 79.9946996,97.3338193 C79.9103645,97.3215818 79.8248333,97.3462446 79.7601268,97.4014581 C73.6747268,102.734386 73.0833758,113.18381 79.4875409,121.376971 C83.7257706,126.797366 92.6229743,132.725325 101.733757,137.869912 C101.605359,138.829862 101.517626,139.794768 101.470792,140.762066 C82.7213717,136.756464 70.8205921,123.881589 68.9080012,121.695555 C68.7797255,121.546159 68.5263809,121.576165 68.4397948,121.74663 C64.989178,128.488606 67.984416,137.538559 74.82536,141.332836 C80.8337946,144.659132 90.2614183,146.617242 101.858184,147.998198 C101.983477,148.835513 102.136422,149.668495 102.31677,150.495793 C84.9097554,152.838885 71.3138122,146.510622 68.9766287,145.33333 C68.8034565,145.245225 68.5930843,145.354399 68.5712774,145.536355 C67.6906646,152.748226 72.2630525,158.539558 80.0750437,159.82347 C87.9338555,161.11632 104.524395,157.212231 104.524395,157.212231 L104.523113,157.211593 Z M212.422232,211.345316 L206.376597,206.610611 C203.963731,208.040727 202.19096,210.311036 201.50212,212.972712 C197.865503,213.478998 187.952356,211.287218 188.916348,209.833479 C199.781301,194.621258 191.470959,185.563644 181.48277,186.068015 L181.48277,196.28313 C181.48277,199.564735 178.606187,202.223857 175.06257,202.223857 L168.165185,202.223857 C163.217591,202.223857 159.996588,207.174357 159.996588,207.174357 C159.996588,207.174357 156.775584,202.223219 151.82799,202.223219 L144.931246,202.223219 C141.384422,202.223219 138.514253,199.564097 138.514253,196.28313 L138.514253,186.068015 C128.526065,185.563644 120.209309,194.62062 131.077469,209.832841 C132.033123,211.271895 121.8429,213.575403 117.063347,212.993142 C115.803679,211.693269 113.987295,210.873506 111.953483,210.873506 C111.088685,210.873932 110.230853,211.027419 109.420038,211.326801 C109.420038,211.326801 90.6379076,193.624646 90.2941286,193.451628 L90.4480595,193.094099 C91.5191617,191.102151 89.8817222,188.931439 88.8465372,189.084666 C90.049122,187.648166 90.104922,181.362678 83.4333019,179.908301 C83.6289224,181.171144 83.7283361,183.747907 83.7283361,183.747907 C83.7283361,183.747907 78.5793488,180.977057 75.9933104,183.368671 C73.7215474,186.045669 76.8739232,190.902318 76.8739232,190.902318 C76.8739232,190.902318 74.23914,190.966162 72.9403483,190.85635 C74.8497324,197.285488 81.2545389,196.830277 82.6399166,195.561687 C82.5501236,196.583199 84.8655003,198.040768 86.8281188,196.872414 L87.6901316,196.457425 C87.8421383,196.659812 106.134897,213.86398 106.134897,213.86398 C105.294691,215.105117 104.895112,216.628446 105.170905,218.252649 C105.605118,220.790467 107.728081,222.894142 110.441113,223.44065 C112.356911,223.823717 114.157902,223.453419 115.602286,222.611949 L120.444694,227.085531 C120.874418,227.474982 121.458073,227.717591 122.10843,227.671623 C123.293057,227.592456 124.180083,226.637343 124.09029,225.541133 C124.051808,225.046339 123.797822,224.621773 123.447629,224.299358 C123.370664,224.215084 118.515428,219.728095 118.515428,219.728095 C122.520837,216.933622 129.983277,214.964021 136.176428,214.964021 C137.264206,214.964021 137.776027,214.047214 137.401461,213.148922 C134.59543,206.432484 140.627596,201.566259 146.868209,205.52717 C149.59022,207.254163 152.355203,210.656434 154.438401,216.332846 C144.200074,218.800435 131.344282,225.599232 128.743492,233.020513 C127.741659,235.885852 131.049889,239.791857 135.067485,240.577782 C135.138533,240.59329 135.212862,240.579889 135.273933,240.54056 C135.335003,240.501232 135.37775,240.439238 135.392664,240.368372 C137.491254,229.289442 149.460662,221.033714 155.688448,219.63169 C156.000799,220.466137 155.89882,220.196075 156.211813,221.02733 C149.428593,224.22083 142.850614,230.955144 140.972657,238.962517 C140.110003,242.629105 144.218033,245.934333 147.609002,246.839009 C147.779608,246.8837 147.947008,246.766226 147.956629,246.602784 C148.601214,236.477052 153.092788,227.877202 157.116798,223.965452 C157.22704,224.730531 157.309831,225.499282 157.365011,226.270237 C157.365011,226.270237 153.244795,237.69712 153.244795,246.034569 C153.244795,249.913758 159.036444,252.621402 159.891401,253 C160.96058,252.621402 166.747738,249.913758 166.747738,246.034569 C166.747738,237.696481 162.628805,226.269599 162.628805,226.269599 C162.685044,225.498605 162.768904,224.729854 162.880226,223.964813 C166.901669,227.878479 171.395809,236.47386 172.037829,246.599592 C172.045426,246.680152 172.088338,246.753272 172.155104,246.799425 C172.221869,246.845578 172.305688,246.860062 172.384173,246.839009 C175.779632,245.934333 179.883813,242.629105 179.025007,238.962517 C177.143203,230.956421 170.568431,224.22083 163.785852,221.02733 C164.095638,220.196075 163.993017,220.465498 164.306652,219.631051 C170.537645,221.033076 182.502562,229.288804 184.601794,240.367734 C184.6338,240.514683 184.779289,240.60809 184.926973,240.576505 C188.942003,239.791218 192.255365,235.883937 191.247759,233.019236 C188.653383,225.597955 175.794383,218.799158 165.554133,216.331569 C167.641179,210.655796 170.406803,207.252886 173.128814,205.525893 C179.365579,201.564982 185.398386,206.430569 182.592355,213.147645 C182.21779,214.045937 182.725762,214.962744 183.817388,214.962744 C190.823166,214.962744 199.454198,217.481408 202.869539,220.860057 C205.05215,224.119956 209.084497,226.205116 213.63572,225.758843 C218.806514,225.254472 223.022937,221.388051 223.605308,216.607377 C224.113922,212.41918 221.937724,208.658741 218.469149,206.609334 L212.420949,211.344678 L212.422232,211.345316 Z M167.865661,180.832769 C170.019411,180.037267 173.395627,180.680819 173.280821,183.775999 C173.253241,184.478288 174.241606,184.478288 174.31344,183.761314 C174.958026,179.126206 171.812064,177.791857 168.519226,178.334535 C168.110027,176.740977 167.775227,175.347891 167.394248,173.967573 C167.090235,172.850295 166.978635,170.752366 168.277426,170.752366 C168.977812,170.752366 168.696247,172.703453 168.630185,173.544284 C168.572461,174.281688 168.838633,174.727961 169.440246,174.749029 C169.814811,174.764352 170.283017,174.288072 170.562658,173.972042 C172.447029,171.850491 172.884449,168.566331 170.676824,166.98235 C168.829653,165.65247 164.204031,166.642059 162.932819,168.536324 C162.740405,167.822543 161.823234,166.644613 161.383248,166.131942 C160.955449,165.630763 160.84449,165.287918 161.435841,164.848668 C161.714841,164.635428 162.558254,163.800342 162.558254,162.938442 C162.558254,162.428963 162.160599,161.487895 160.899649,161.487895 C159.904229,161.487895 158.797851,162.173585 158.797851,163.703298 C158.797851,164.043589 158.88123,164.407503 159.101223,164.799508 C158.472672,164.69608 156.764039,164.738217 155.886634,164.954011 L168.017027,198.08929 C171.48945,196.383365 174.035082,193.682106 174.035082,190.782929 C174.035082,188.312148 170.379224,189.131911 168.603888,191.059375 C168.033061,187.926527 167.525089,185.033735 166.969655,182.150518 C166.81829,181.355016 167.224283,181.069632 167.865661,180.830215 L167.865661,180.832769 Z M150.712633,158.323125 L153.261471,165.371554 C151.079501,165.888694 147.569877,167.472037 147.569877,169.569328 C147.569877,172.361885 152.534148,174.180175 155.403675,173.961827 C155.261289,174.598995 155.425482,175.166572 155.871882,175.685628 C154.830283,175.685628 152.865099,176.168292 152.219872,176.860366 C150.697881,175.449403 148.317084,174.935455 147.18505,175.794163 C146.047886,176.659894 146.013893,178.125763 147.201085,179.783166 C148.028463,180.930451 148.33889,182.062413 147.408891,183.391655 C150.867846,183.391655 149.594068,178.914881 150.949301,178.914881 C150.771639,179.783166 150.880032,180.787439 151.273839,181.901525 C151.534238,182.642121 151.534238,183.168199 151.087839,183.880704 C149.97184,185.656857 148.23627,189.735241 148.471014,193.424174 C147.337057,193.41779 146.760458,193.141982 147.160037,191.5995 C147.308836,191.026176 146.952871,190.616295 146.481458,191.323691 C145.960659,192.103871 145.709238,193.436943 145.709238,194.006436 C145.709238,197.290595 149.640889,197.952024 151.140432,197.257396 C155.480641,201.439209 164.006486,200.323207 166.860621,198.920545 L151.850438,157.924097 C151.543859,157.149664 150.443254,157.519962 150.712633,158.324402 L150.712633,158.323125 Z M150.193116,192.093656 C149.882689,190.406246 152.241679,187.389595 155.242689,184.478288 C154.603876,186.375745 155.00089,189.644582 156.253502,190.770798 C154.076663,190.770798 151.491266,191.177488 150.192475,192.093656 L150.192475,192.093656 L150.193116,192.093656 Z"/>
</svg>
