<?xml version="1.0" encoding="UTF-8"?>
<svg width="320px" height="320px" viewBox="0 0 320 320" version="1.1" xmlns="http://www.w3.org/2000/svg" xmlns:xlink="http://www.w3.org/1999/xlink">
    <!-- Generator: Sketch 50 (54983) - http://www.bohemiancoding.com/sketch -->
    <title>IVI</title>
    <desc>Created with Sketch.</desc>
    <defs></defs>
    <g id="IVI" stroke="none" stroke-width="1" fill="none" fill-rule="evenodd">
        <g id="Group" transform="translate(16.000000, 92.000000)">
            <polygon id="Fill-1" fill="#F7104D" points="0.243551452 0.393557522 0.243551452 135.152708 288.182286 0.393557522"></polygon>
            <polygon id="Fill-2" fill="#FFFFFF" points="33.5328739 60.9266761 33.5328739 45.4479504 20.1741187 53.185508"></polygon>
            <polygon id="Fill-3" fill="#FFFFFF" points="18.8992809 70.8858478 32.2460444 63.1555115 18.8992809 55.4107327"></polygon>
            <polygon id="Fill-4" fill="#FFFFFF" points="41.9211888 36.8788673 49.6318527 50.2802832 57.3365207 36.8788673"></polygon>
            <polygon id="Fill-5" fill="#FFFFFF" points="67.2881938 51.5610903 59.5751315 38.165692 51.8644676 51.5610903"></polygon>
            <polygon id="Fill-6" fill="#FFFFFF" points="51.8401245 54.1367858 59.5447925 67.5418124 67.2566556 54.1367858"></polygon>
            <polygon id="Fill-7" fill="#FFFFFF" points="61.7554627 68.8438018 77.1719938 68.8438018 69.4541349 55.4363681"></polygon>
            <polygon id="Fill-8" fill="#FFFFFF" points="18.9244635 50.9505345 18.9244635 50.9709947 32.2748245 43.2370478 32.2592353 43.2274195 32.2700278 43.2274195 18.9232643 35.4862513 18.9232643 50.9565522"></polygon>
            <polygon id="Fill-9" fill="#FFFFFF" points="18.9244635 31.0485593 18.9244635 31.0630018 32.2748245 23.3314619 32.2592353 23.3218336 32.2700278 23.3158159 18.9232643 15.581869 18.9232643 31.0557805"></polygon>
            <polygon id="Fill-10" fill="#FFFFFF" points="106.096097 50.9505345 106.096097 50.9709947 119.452454 43.2370478 119.439263 43.2274195 119.448856 43.2274195 106.086504 35.4862513 106.086504 50.9565522"></polygon>
            <polygon id="Fill-11" fill="#FFFFFF" points="106.096097 31.0485593 106.096097 31.0630018 119.452454 23.3314619 119.439263 23.3218336 119.448856 23.3158159 106.086504 15.581869 106.086504 31.0557805"></polygon>
            <polygon id="Fill-12" fill="#FFFFFF" points="89.3176685 50.2805239 97.0343282 36.879108 81.6106021 36.879108"></polygon>
            <polygon id="Fill-13" fill="#FFFFFF" points="79.3794261 38.1658124 71.6615672 51.5612106 87.09009 51.5612106"></polygon>
            <polygon id="Fill-14" fill="#FFFFFF" points="79.4080863 67.5414513 87.1091568 54.1364248 71.6962232 54.1364248"></polygon>
            <polygon id="Fill-15" fill="#FFFFFF" points="107.352707 53.1865912 120.704268 60.9277593 120.704268 45.4466265"></polygon>
            <polygon id="Fill-16" fill="#FFFFFF" points="106.079668 70.8858478 119.425233 63.1555115 106.079668 55.4107327"></polygon>
        </g>
    </g>
</svg>