<svg xmlns="http://www.w3.org/2000/svg" width="320" height="320" viewBox="0 0 320 320">
  <g fill="none" transform="translate(11 119)">
    <polygon fill="#010101" points="35.028 62.782 25.739 62.782 7.49 42.89 7.332 42.89 7.332 62.782 .711 62.782 .711 21.394 7.332 21.394 7.332 40.339 7.49 40.339 24.863 21.394 33.528 21.394 14.358 41.35"/>
    <polygon fill="#010101" points="170.873 62.782 164.233 62.782 164.233 43.989 143.177 43.989 143.177 62.782 136.543 62.782 136.543 21.394 143.177 21.394 143.177 38.357 164.233 38.357 164.233 21.394 170.873 21.394"/>
    <polygon fill="#010101" points="210.21 27.04 197.8 27.04 197.8 62.782 191.204 62.782 191.204 27.04 178.756 27.04 178.756 21.394 210.21 21.394"/>
    <path fill="#010101" d="M254.427928 21.3943326L235.415315 69.3881804C232.02973 77.9642457 227.262162 82.2450609 221.11982 82.2450609 219.410811 82.2450609 217.96036 82.0808652 216.818919 81.7281152L216.818919 76.1319304C218.244144 76.6127891 219.555856 76.5117457 220.728829 76.5117457 224.071171 76.5117457 226.555856 74.5404957 228.233333 70.5492783L231.537838 62.69405 215.393694 21.3943326 222.734234 21.3943326 233.909009 53.247387C234.06036 53.6515609 234.34955 54.6863543 234.766667 56.3788326L235.005405 56.3788326C235.145045 55.748213 235.415315 54.7368761 235.813514 53.3231696L247.561261 21.3943326 254.427928 21.3943326zM268.150901 40.0871054L268.150901 45.8709424C268.150901 49.3064207 269.25991 52.2114207 271.492342 54.5850402 273.713063 56.9730946 276.524775 58.1856163 279.942793 58.1856163 283.953604 58.1856163 287.093243 56.6320728 289.364414 53.5755076 291.64009 50.4936815 292.782432 46.2119641 292.782432 40.7303554 292.782432 36.1328772 291.704054 32.5205728 289.584234 29.906975 287.45991 27.292475 284.571622 25.9915402 280.939189 25.9915402 277.104955 25.9915402 274.002252 27.3429967 271.657207 30.0206489 269.335586 32.6983011 268.150901 36.069725 268.150901 40.0871054M268.314865 56.783638L268.150901 56.783638 268.150901 81.8036272 261.529279 81.8036272 261.529279 21.394062 268.150901 21.394062 268.150901 28.656562 268.314865 28.656562C271.568018 23.1505946 276.329279 20.4215185 282.604054 20.4215185 287.913964 20.4215185 292.087838 22.265562 295.08964 25.9915402 298.05991 29.6931598 299.541892 34.643388 299.541892 40.857562 299.541892 47.7907685 297.883333 53.3228989 294.496847 57.5035728 291.142793 61.6580837 286.538288 63.7430076 280.69955 63.7430076 275.351802 63.7430076 271.214865 61.4307359 268.314865 56.783638"/>
    <path fill="#D70C17" d="M79.712973,0.655790217 C67.2273874,0.655790217 56.5381982,8.52455109 52.312973,19.5626489 C43.0499099,23.0486489 36.4409009,32.0162576 36.4409009,42.4995185 C36.4409009,56.0384424 47.4381982,67.0386489 60.94,67.0386489 L101.185045,67.0386489 C116.319279,67.0386489 128.647207,54.7366054 128.647207,39.5692576 C128.647207,25.0063663 117.271532,13.0588772 102.976036,12.1233228 C97.5715315,5.01329022 89.0958559,0.655790217 79.712973,0.655790217 M79.712973,7.28676848 C86.876036,7.28676848 93.4291892,10.5201598 97.7102703,16.1533337 L99.5571171,18.5395837 L102.553514,18.7290402 C113.481441,19.4363446 122.039099,28.5807793 122.039099,39.5692576 C122.039099,51.0485185 112.693153,60.4338337 101.185045,60.4338337 L60.94,60.4338337 C51.0832432,60.4338337 43.0562162,52.3882467 43.0562162,42.4995185 C43.0562162,35.109812 47.7282883,28.3786924 54.6526126,25.7506598 L57.4273874,24.7032359 L58.5057658,21.9119098 C61.8481081,13.1472902 70.367027,7.28676848 79.712973,7.28676848"/>
  </g>
</svg>
