<svg xmlns="http://www.w3.org/2000/svg" width="320" height="320" viewBox="0 0 320 320">
  <g fill="none" fill-rule="evenodd">
    <path fill="#168DE2" d="M300.094955,121.31887 L19.903615,121.31887 C18.29987,121.31887 17,122.302445 17,123.515954 L17,195.704324 C17,196.917833 18.29987,197.901408 19.903615,197.901408 L300.094955,197.901408 C301.697985,197.901408 302.99857,196.917833 302.99857,195.704324 L302.99857,123.515954 C302.99857,122.302445 301.697985,121.31887 300.094955,121.31887"/>
    <path fill="#FFA930" d="M70.997515 159.178996C70.68792 153.190218 66.22346 149.589406 60.83093 149.589406L60.62787 149.589406C54.405225 149.589406 50.95392 154.460716 50.95392 159.993965 50.95392 166.190579 55.12952 170.103855 60.60356 170.103855 66.707515 170.103855 70.721525 165.653197 71.011815 160.388994L70.997515 159.178996zM60.658615 144.231962C64.81634 144.231962 68.725245 146.061194 71.59597 148.925331L71.59597 148.936719C71.59597 147.56088 72.52547 146.524552 73.81676 146.524552L74.1428 146.522417C76.162675 146.522417 76.57666 148.424961 76.57666 149.027113L76.58667 170.411337C76.444385 171.809952 78.03812 172.532392 78.92186 171.63557 82.37102 168.106646 86.497285 153.495564 76.777575 145.029137 67.718525 137.136391 55.56424 138.437495 49.099925 142.872494 42.22806 147.590774 37.83081 158.031633 42.10222 167.838311 46.7583 178.537541 60.082325 181.726242 68.00095 178.54537 72.01067 176.933938 73.863235 182.330529 69.69836 184.092855 63.405645 186.76268 45.89172 186.493634 37.709975 172.385057 32.18231 162.858102 32.47689 146.095359 47.13725 137.411132 58.35274 130.768243 73.13894 132.608152 82.05499 141.87816 91.375015 151.568109 90.831615 169.713097 81.74039 176.771656 77.62199 179.975303 71.50445 176.855644 71.543775 172.185051L71.500875 170.657607C68.63301 173.491137 64.81634 175.143852 60.658615 175.143852 52.44255 175.143852 45.2139 167.947211 45.2139 159.771183 45.2139 151.511168 52.44255 144.231962 60.658615 144.231962L60.658615 144.231962zM221.3041 175.39297C221.28694 176.71685 219.896265 178.073471 217.878535 178.073471 215.84293 178.073471 214.57452 176.590868 214.57452 175.281935L214.576665 173.022797C214.600975 171.65977 215.86581 170.244784 217.931445 170.244784 220.189415 170.244784 221.310535 171.762264 221.310535 173.188638L221.3041 175.39297M243.336825 143.39991C233.946015 143.439057 225.93587 151.679144 225.980915 160.747723L225.980915 174.883347C225.980915 176.724679 227.49457 178.073471 229.089735 178.073471 230.987345 178.073471 232.46096 176.676991 232.46096 174.98157L232.46096 160.62957C232.45524 155.491349 236.96689 149.818594 243.295355 149.8492 245.3567 149.858453 246.710195 148.301826 246.700185 146.580782 246.693035 145.204231 245.699185 143.389946 243.336825 143.39991M282.34365 143.39991C280.34737 143.39991 279.061085 145.027002 279.061085 146.528823L279.0618 160.753417C279.0618 166.245385 274.417875 171.606388 267.958565 171.606388 262.67829 171.606388 257.084845 167.045407 257.084845 160.856623L257.084845 146.607829C257.084845 145.112413 255.95872 143.39991 253.7222 143.39991 252.142765 143.39991 250.53044 144.718808 250.53044 146.543058L250.53044 160.745588C250.53044 169.940861 258.78583 178.039306 267.93783 178.039306 277.93067 178.039306 285.597615 169.510244 285.597615 160.788294L285.597615 146.538076C285.597615 144.940167 284.27415 143.39991 282.34365 143.39991"/>
    <path fill="#FFF" d="M187.313715 138.280195C187.313715 139.67454 185.9116 140.821191 183.891725 140.821191 181.858265 140.821191 180.59057 139.434676 180.59057 138.127878L180.591285 136.329963C180.615595 134.968359 181.811075 133.444474 183.873135 133.444474 186.13182 133.444474 187.313715 134.901454 187.313715 136.329963L187.313715 138.280195M126.51941 143.425534C122.391715 143.364322 119.228555 145.749442 117.278035 147.33881 115.1123 145.027002 112.33953 143.61771 109.491685 143.441904 106.487255 143.257558 103.66944 144.264703 101.87765 145.713142 101.250595 144.264703 100.42334 143.41201 99.00764 143.41201 97.45466 143.41201 95.80301 144.732332 95.80301 146.888263 95.80301 149.039925 95.8216 174.824271 95.8216 174.824271 95.8216 176.427874 97.197975 178.054254 99.162795 178.054254 101.32996 178.054254 102.5283 176.408656 102.5283 174.813594L102.5283 154.089887C102.5283 152.073461 105.991045 149.687629 108.918255 149.726065 110.788695 149.750976 113.01163 151.587326 113.01163 154.483492L113.02879 174.861994C113.02879 176.664179 114.849895 178.045001 116.50226 178.045001 118.466365 178.045001 119.95428 176.567379 119.95428 174.883347L119.95428 154.287045C119.95428 151.763844 123.80527 149.649194 126.44219 149.784429 128.509255 149.891906 130.33608 152.134672 130.33608 154.287045L130.33608 174.854165C130.33608 176.635709 132.015615 178.045001 133.827425 178.045001 135.417585 178.045001 137.257995 176.997285 137.257995 174.824271L137.257995 154.346122C137.280875 146.830611 129.823425 143.323752 126.51941 143.425534M183.920325 143.402757C181.90617 143.41201 180.60487 145.056184 180.60201 146.725981L180.609875 174.792953C180.59486 176.654215 182.07634 178.042865 183.907455 178.042865 185.996685 178.042865 187.33159 176.417909 187.33159 174.649177L187.34589 146.772958C187.34589 145.124513 185.673505 143.397063 183.920325 143.402757M158.0409 171.641976C151.98199 171.641976 147.06994 166.755007 147.06994 160.727082 147.06994 154.696309 151.98199 149.810765 158.0409 149.810765 164.10124 149.810765 169.01329 154.696309 169.01329 160.727082 169.01329 166.755007 164.10124 171.641976 158.0409 171.641976zM172.215775 143.41201C170.32317 143.408451 168.985405 144.91739 168.985405 146.387894L168.985405 147.533833C165.99742 145.000667 162.12641 143.430516 157.94795 143.425534 148.753765 143.408451 140.611345 151.120409 140.611345 160.766229 140.611345 169.609179 148.369095 178.054254 157.94795 178.054254 161.822535 178.054254 165.99027 176.570938 168.9518 174.056278L168.96038 174.876941C168.96038 176.447091 170.2102 178.054254 172.262965 178.054254 174.593865 178.054254 175.63705 176.200821 175.63705 174.737435L175.63705 146.566546C175.662075 145.244801 174.203475 143.413434 172.215775 143.41201L172.215775 143.41201zM207.007675 171.350153C202.73841 171.347306 198.93175 168.078888 198.93175 163.258825L198.936755 136.576945C198.93175 134.733477 197.42024 133.444474 195.57411 133.444474 193.42768 133.450168 192.19073 135.023877 192.19073 136.576945L192.19073 163.284448C192.16642 171.57507 199.051155 178.073471 206.887555 178.073471 209.214165 178.073471 210.336715 176.192992 210.336715 174.600777 210.336715 173.081873 209.13337 171.351576 207.007675 171.350153"/>
  </g>
</svg>
