<?xml version="1.0" encoding="UTF-8" standalone="no"?><!DOCTYPE svg PUBLIC "-//W3C//DTD SVG 1.1//EN" "http://www.w3.org/Graphics/SVG/1.1/DTD/svg11.dtd"><svg width="100%" height="100%" viewBox="0 0 95 32" version="1.1" xmlns="http://www.w3.org/2000/svg" xmlns:xlink="http://www.w3.org/1999/xlink" xml:space="preserve" xmlns:serif="http://www.serif.com/" style="fill-rule:evenodd;clip-rule:evenodd;stroke-linejoin:round;stroke-miterlimit:1.41421;"><rect id="_32_-mail_b" serif:id="32_@mail_b" x="0" y="0" width="95" height="32" style="fill:none;"/><clipPath id="_clip1"><rect x="0" y="0" width="95" height="32"/></clipPath><g clip-path="url(#_clip1)"><g><rect x="91.063" y="2.96" width="3.033" height="20.593" style="fill:#005ff9;"/><path d="M87.785,23.553l-3.033,0l0,-14.593l3.033,0l0,14.593Zm-1.516,-21.104c1.13,0 2.047,0.917 2.047,2.047c0,1.13 -0.917,2.048 -2.047,2.048c-1.13,0 -2.048,-0.918 -2.048,-2.048c0,-1.13 0.918,-2.047 2.048,-2.047Z" style="fill:#005ff9;"/><path d="M81.475,23.553l-2.982,0l0,-1.596c-1.068,1.21 -2.95,1.97 -4.72,1.97c-4.234,0 -7.671,-3.437 -7.671,-7.671c0,-4.233 3.437,-7.671 7.671,-7.671c1.77,0 3.553,0.667 4.72,1.846l0,-1.471l2.982,0l0,14.593Zm-7.605,-11.902c2.61,0 4.664,1.868 4.664,4.605c0,2.738 -2.054,4.622 -4.664,4.622c-2.611,0 -4.595,-2.011 -4.595,-4.622c0,-2.61 1.984,-4.605 4.595,-4.605Z" style="fill:#005ff9;"/><path d="M43.841,23.553l-2.981,0l0,-14.593l2.981,0l0,1.019c0.662,-0.622 1.903,-1.391 3.625,-1.394c2.115,0 3.692,0.89 4.773,2.322c1.182,-1.417 3.13,-2.322 5.116,-2.322c3.725,0 6.264,2.516 6.264,6.436l0,8.532l-2.981,0l0,-8.532c0,-1.905 -1.55,-3.454 -3.454,-3.454c-1.905,0 -3.454,1.549 -3.454,3.454l0,8.532l-2.981,0l0,-8.532c0,-1.905 -1.55,-3.454 -3.454,-3.454c-1.905,0 -3.454,1.549 -3.454,3.454l0,8.532Z" style="fill:#005ff9;"/><path d="M20.813,16c0,2.654 -2.159,4.813 -4.813,4.813c-2.654,0 -4.813,-2.159 -4.813,-4.813c0,-2.654 2.159,-4.813 4.813,-4.813c2.654,0 4.813,2.159 4.813,4.813m-4.813,-16c-8.822,0 -16,7.178 -16,16c0,8.822 7.178,16 16,16c3.232,0 6.349,-0.962 9.013,-2.783l0.046,-0.032l-2.156,-2.506l-0.036,0.024c-2.051,1.319 -4.426,2.017 -6.867,2.017c-7.014,0 -12.72,-5.706 -12.72,-12.72c0,-7.014 5.706,-12.72 12.72,-12.72c7.014,0 12.72,5.706 12.72,12.72c0,0.909 -0.101,1.829 -0.3,2.734c-0.402,1.651 -1.558,2.157 -2.426,2.09c-0.873,-0.071 -1.894,-0.693 -1.901,-2.215l0,-1.16l0,-1.449c0,-4.463 -3.63,-8.093 -8.093,-8.093c-4.463,0 -8.093,3.63 -8.093,8.093c0,4.463 3.63,8.093 8.093,8.093c2.168,0 4.201,-0.848 5.734,-2.389c0.891,1.387 2.344,2.257 3.997,2.389c0.142,0.012 0.287,0.018 0.431,0.018c1.163,0 2.317,-0.389 3.247,-1.096c0.959,-0.728 1.675,-1.781 2.071,-3.046c0.063,-0.204 0.179,-0.672 0.18,-0.675l0.003,-0.017c0.233,-1.015 0.337,-2.027 0.337,-3.277c0,-8.822 -7.178,-16 -16,-16" style="fill:#ff9e00;fill-rule:nonzero;"/></g></g></svg>