<svg xmlns="http://www.w3.org/2000/svg" width="320" height="320" viewBox="0 0 320 320">
  <g fill="none" fill-rule="evenodd">
    <rect width="320" height="320"/>
    <path fill="#00B956" fill-rule="nonzero" d="M38.3,133.7 L38.3,161.5 L38.3,161.5 L38.3,161.5 C38.3,162.8 37.3,163.7 36.1,163.7 L32.8,163.7 L32.8,163.7 C32.6,163.7 32.5,163.9 32.5,164 L32.5,187.3 C33.3,187.3 34.1,187.5 35,187.5 C49.9,187.5 62,175.4 62,160.5 C62,146.8 51.7,135.3 38.3,133.7 Z M37.7,175.3 C35.8,175.3 34.4,173.7 34.4,172 C34.4,170.1 36,168.7 37.7,168.7 C39.6,168.7 41,170.3 41,172 C41.2,173.8 39.6,175.3 37.7,175.3 Z M45.6,175.3 C43.7,175.3 42.3,173.7 42.3,172 C42.3,170.1 43.9,168.7 45.6,168.7 C47.5,168.7 48.9,170.3 48.9,172 C48.9,173.7 47.6,175.3 45.6,175.3 Z M53.6,175.3 C51.7,175.3 50.3,173.7 50.3,172 C50.3,170.1 51.9,168.7 53.6,168.7 C55.5,168.7 56.9,170.3 56.9,172 C56.9,173.7 55.5,175.3 53.6,175.3 Z"/>
    <path fill="#00B956" fill-rule="nonzero" d="M35,133.6 C20.1,133.6 8,145.7 8,160.6 C8,173.7 17.1,184.4 29.3,186.9 L29.3,162.6 L29.3,162.6 C29.3,161.5 30.3,160.6 31.3,160.4 L31.3,160.4 L32.4,160.4 L34.6,160.4 C34.8,160.4 34.9,160.2 34.9,160.1 L35,133.6 L35,133.6 Z M29.8,155.8 C27.9,155.8 26.5,154.2 26.5,152.5 C26.5,150.6 28.1,149.2 29.8,149.2 C31.7,149.2 33.1,150.8 33.1,152.5 C33.1,154.2 31.6,155.8 29.8,155.8 Z"/>
    <polygon fill="#00B956" fill-rule="nonzero" points="305.3 148.3 305.3 158.5 291.7 158.5 291.7 148.3 284.8 148.3 284.8 175.3 291.7 175.3 291.7 164.4 305.3 164.4 305.3 175.3 312 175.3 312 148.3"/>
    <path fill="#00B956" fill-rule="nonzero" d="M192.9 151.4C191.8 149 189.6 147.7 187.4 147.7L187.4 147.7 187.4 147.7 187.4 147.7C185.2 147.7 182.9 149 181.9 151.4L171 175.4 178.2 175.4 180.6 169.7 194.6 169.7 197 175.4 204.2 175.4 192.9 151.4zM182.5 164.3L186.6 154.4C186.8 154.1 186.9 154.1 187.1 154.1L187.1 154.1 187.1 154.1C187.3 154.1 187.6 154.1 187.6 154.4L191.7 164.3 182.5 164.3zM112.5 143.5C109.3 143.5 107.3 145.2 105.8 148.6L97.1 168.9 88.3 148.5C86.9 145.2 84.8 143.4 81.6 143.4 78.6 143.4 75.6 145.4 75.6 150.1L75.6 175.2 82.3 175.2 82.3 151 91.2 171.1C92.3 174 94.4 175.7 97.1 175.7L97.1 175.7 97.1 175.7 97.1 175.7 97.1 175.7C100 175.7 101.9 174 103 171.1L111.9 151 111.9 175.5 118.6 175.5 118.6 150.4C118.5 145.7 115.5 143.5 112.5 143.5zM130.4 169.6C130.1 169.6 129.7 169.3 129.7 168.9L129.7 164.1 146.5 164.1 146.5 158.6 129.7 158.6 129.7 154.5C129.7 154.2 130 153.8 130.4 153.8L147.1 153.8 147.1 148.1 127.1 148.1C124.7 148.1 123.1 150 123.1 152.1L123.1 171C123.1 173 124.8 175 127.1 175L147.1 175 147.1 169.3 130.4 169.3 130.4 169.6 130.4 169.6zM158.4 175.3L158.4 154.7C158.4 154.4 158.7 154 159.1 154L175.8 154 175.8 148.3 155.8 148.3C153.4 148.3 151.8 150.2 151.8 152.3L151.8 175.2 158.4 175.3 158.4 175.3 158.4 175.3zM280.4 161.9C280.4 152.5 276.3 148.1 266.1 148.1L263.7 148.1C253.5 148.1 249.4 152.6 249.4 161.9L249.4 161.9C249.4 171.1 253.5 175.7 263.7 175.7L265.9 175.7C276.3 175.5 280.4 171.1 280.4 161.9L280.4 161.9zM265.9 170L263.7 170C258.2 170 255.9 167.5 255.9 161.9L255.9 161.9C255.9 156.5 257.8 153.8 263.7 153.8L265.9 153.8C271.6 153.8 273.7 156.5 273.7 161.9L273.7 161.9C273.7 167.4 271.6 170 265.9 170zM230.7 144.1L217.3 144.1C207.3 144.1 203.3 149.2 203.3 157.9 203.3 159.3 203.5 160.6 203.6 161.7 204.7 167.9 208.4 171.7 217.7 171.7L220.7 171.7 220.7 175.2 227.4 175.2 227.4 171.7 230.3 171.7C239.7 171.7 243.4 167.9 244.4 161.7 244.6 160.6 244.7 159.3 244.7 157.9 244.6 149.2 240.5 144.1 230.7 144.1zM220.5 166.1L217.5 166.1C212.9 166.1 211.3 164.4 210.3 161.6 210 160.6 210 159.2 210 157.8 210 152.1 212.7 149.7 216.5 149.7L220.6 149.7 220.6 166.1 220.5 166.1 220.5 166.1zM237.7 161.9C236.7 164.6 235 166.4 230.5 166.4L227.5 166.4 227.5 149.9 231.6 149.9C235.4 149.9 238.1 152.3 238.1 158 238 159.5 238 160.7 237.7 161.9z"/>
  </g>
</svg>
