<svg xmlns="http://www.w3.org/2000/svg" xmlns:xlink="http://www.w3.org/1999/xlink" width="293" height="533" viewBox="0 0 293 533">
  <defs>
    <rect id="articles-left-a" width="294" height="553"/>
    <linearGradient id="articles-left-c" x1="50%" x2="53.508%" y1="1.008%" y2="111.813%">
      <stop offset="0%" stop-color="#F6C0CF"/>
      <stop offset="23.159%" stop-color="#F9CEDA"/>
      <stop offset="100%" stop-color="#FFF5C4"/>
    </linearGradient>
  </defs>
  <g fill="none" fill-rule="evenodd" transform="translate(0 -2)">
    <mask id="articles-left-b" fill="#fff">
      <use xlink:href="#articles-left-a"/>
    </mask>
    <g fill="url(#articles-left-c)" mask="url(#articles-left-b)" opacity=".48">
      <g transform="translate(-358 -63)">
        <path d="M438.317625,79.7243344 L637.381246,189.028723 L637.381246,189.028723 C650.176826,196.054682 658.128923,209.493147 658.128923,224.090783 L658.128923,439.287656 L658.128923,439.287656 C658.128923,453.885291 650.176826,467.323756 637.381246,474.349716 L438.317625,583.654104 L438.317625,583.654104 C426.327083,590.238024 411.803522,590.238024 399.81298,583.654104 L200.749359,474.349716 L200.749359,474.349716 C187.953779,467.323756 180.001681,453.885291 180.001681,439.287656 L180.001681,224.090783 L180.001681,224.090783 C180.001681,209.493147 187.953779,196.054682 200.749359,189.028723 L399.81298,79.7243344 L399.81298,79.7243344 C411.803522,73.1404148 426.327083,73.1404148 438.317625,79.7243344 Z" transform="rotate(-62 419.065 331.69)"/>
        <path d="M358.317625,79.7243344 L557.381246,189.028723 L557.381246,189.028723 C570.176826,196.054682 578.128923,209.493147 578.128923,224.090783 L578.128923,439.287656 L578.128923,439.287656 C578.128923,453.885291 570.176826,467.323756 557.381246,474.349716 L358.317625,583.654104 L358.317625,583.654104 C346.327083,590.238024 331.803522,590.238024 319.81298,583.654104 L120.749359,474.349716 L120.749359,474.349716 C107.953779,467.323756 100.001681,453.885291 100.001681,439.287656 L100.001681,224.090783 L100.001681,224.090783 C100.001681,209.493147 107.953779,196.054682 120.749359,189.028723 L319.81298,79.7243344 L319.81298,79.7243344 C331.803522,73.1404148 346.327083,73.1404148 358.317625,79.7243344 Z" transform="rotate(-62 339.065 331.69)"/>
      </g>
    </g>
  </g>
</svg>
