<svg xmlns="http://www.w3.org/2000/svg" width="534" height="344" viewBox="0 0 534 344">
  <defs>
    <linearGradient id="articles-bottom-a" x1="50%" x2="30.81%" y1="12.175%" y2="83.716%">
      <stop offset="0%" stop-color="#FFCBED"/>
      <stop offset="100%" stop-color="#DAF6FF"/>
    </linearGradient>
  </defs>
  <g fill="url(#articles-bottom-a)" fill-rule="evenodd">
    <path d="M525.781748,130.378823 C499.476086,90.1961439 451.581658,105.178529 437.413402,111.160911 C423.245146,117.143293 387.696479,123.250652 341.160134,75.2033571 C294.62379,27.1560623 253.685463,-2.13328313 199.974618,0.186640137 C146.263774,2.5065634 93.6424094,61.7990767 67.7936263,84.7846653 C41.9448431,107.770254 -15.6093038,146.22116 3.99630915,183.349986 C23.6019221,220.478812 74.7447072,210.000199 89.7765139,199.669879 C104.808321,189.33956 152.888513,166.145354 183.978848,199.933793 C215.069183,233.722231 206.752487,292.562321 282.835319,308.148285 C358.918151,323.734248 423.960587,301.718855 466.515562,264.519652 C509.070536,227.320449 552.08741,170.561503 525.781748,130.378823 Z" opacity=".48"/>
    <path d="M525.781748,160.378823 C499.476086,120.196144 451.581658,135.178529 437.413402,141.160911 C423.245146,147.143293 387.696479,153.250652 341.160134,105.203357 C294.62379,57.1560623 253.685463,27.8667169 199.974618,30.1866401 C146.263774,32.5065634 93.6424094,91.7990767 67.7936263,114.784665 C41.9448431,137.770254 -15.6093038,176.22116 3.99630915,213.349986 C23.6019221,250.478812 74.7447072,240.000199 89.7765139,229.669879 C104.808321,219.33956 152.888513,196.145354 183.978848,229.933793 C215.069183,263.722231 206.752487,322.562321 282.835319,338.148285 C358.918151,353.734248 423.960587,331.718855 466.515562,294.519652 C509.070536,257.320449 552.08741,200.561503 525.781748,160.378823 Z" opacity=".8"/>
  </g>
</svg>
