<svg xmlns="http://www.w3.org/2000/svg" xmlns:xlink="http://www.w3.org/1999/xlink" width="521" height="201" viewBox="0 0 521 201">
  <defs>
    <rect id="bottom-central-img-a" width="521" height="201"/>
    <linearGradient id="bottom-central-img-c" x1="69.048%" x2="42.256%" y1="8.531%" y2="81.942%">
      <stop offset="0%" stop-color="#C3FFDC"/>
      <stop offset="100%" stop-color="#F0FF72"/>
    </linearGradient>
  </defs>
  <g fill="none" fill-rule="evenodd">
    <mask id="bottom-central-img-b" fill="#fff">
      <use xlink:href="#bottom-central-img-a"/>
    </mask>
    <g fill="url(#bottom-central-img-c)" mask="url(#bottom-central-img-b)">
      <path d="M328.347615,430.500341 L282.982461,499.205257 C275.374591,510.727273 259.866755,513.900316 248.344739,506.292447 C245.598202,504.478936 243.236783,502.140951 241.39597,499.412637 L195.347868,431.16357 C186.99382,418.781823 172.567311,411.922794 157.6908,413.259662 L75.6904224,420.628571 C61.9387186,421.864359 49.7889563,411.718204 48.5531686,397.9665 C48.2585902,394.688465 48.6141794,391.384524 49.5995341,388.244242 L74.2482809,309.689789 C78.7200569,295.438439 75.0878797,279.882805 64.7673222,269.085404 L7.87967762,209.569367 C-1.66054714,199.588353 -1.30321689,183.763262 8.67779707,174.223037 C11.0570015,171.948905 13.8618331,170.166942 16.9313625,168.97939 L93.7159493,139.272656 C107.64621,133.88326 117.543469,121.34473 119.550455,106.543724 L130.6131,24.9595302 C132.468338,11.2776217 145.063684,1.69021104 158.745593,3.54544914 C162.006991,3.98768785 165.148969,5.06955779 167.991255,6.72898597 L239.091322,48.2397474 C251.990297,55.7706306 267.964155,55.6909738 280.787382,48.0318218 L351.46992,5.81403358 C363.323589,-1.26601327 378.672398,2.60377193 385.752445,14.4574408 C387.440137,17.2830356 388.553289,20.4140682 389.028032,23.6708934 L400.903778,105.1407 C403.058276,119.920954 413.080092,132.360154 427.063409,137.610353 L504.140447,166.549826 C517.066492,171.403061 523.610798,185.816015 518.757564,198.74206 C517.600683,201.82328 515.846782,204.645744 513.596491,207.047511 L457.305238,267.127937 C447.092878,278.027729 443.61602,293.618814 448.229704,307.824858 L473.66066,386.129578 C477.925506,399.26151 470.737313,413.364384 457.605382,417.62923 C454.475084,418.645854 451.174853,419.034376 447.894043,418.772505 L365.824252,412.221764 C350.935149,411.033328 336.577762,418.035893 328.347615,430.500341 Z" opacity=".56"/>
      <path d="M239.846328,462.461945 L168.954144,504.326741 C157.065317,511.34759 141.735996,507.401314 134.715147,495.512487 C133.041566,492.678511 131.944042,489.541967 131.485545,486.282814 L120.016206,404.7548 C117.935439,389.963986 107.975778,377.474967 94.018815,372.155103 L17.0870463,342.831634 C4.18536314,337.914003 -2.28698947,323.468594 2.63064211,310.566911 C3.80287282,307.491498 5.57082679,304.677815 7.83306651,302.2873 L64.423219,242.488324 C74.6898056,231.639593 78.2443674,216.06604 73.7015806,201.837166 L48.661418,123.406604 C44.4621093,110.253569 51.7205388,96.1867148 64.873574,91.9874061 C68.0089028,90.9864042 71.3110297,90.6143439 74.5904931,90.8925723 L156.626598,97.8524838 C171.509589,99.1151511 185.901716,92.184268 194.193917,79.7610164 L239.901113,11.2831733 C247.566344,-0.200761711 263.08981,-3.29643308 274.573745,4.36879779 C277.311206,6.19598204 279.660937,8.54571301 281.488121,11.2831733 L327.195318,79.7610164 C335.487518,92.184268 349.879645,99.1151511 364.762637,97.8524838 L446.798741,90.8925723 C460.556437,89.7253747 472.655453,99.9319897 473.82265,113.689685 C474.100879,116.969148 473.728818,120.271275 472.727816,123.406604 L447.687654,201.837166 C443.144867,216.06604 446.699429,231.639593 456.966015,242.488324 L513.556168,302.2873 C523.046502,312.315763 522.610263,328.138875 512.581799,337.62921 C510.191284,339.89145 507.377601,341.659404 504.302188,342.831634 L427.37042,372.155103 C413.413457,377.474967 403.453796,389.963986 401.373028,404.7548 L389.903689,486.282814 C387.980248,499.955301 375.33725,509.479784 361.664763,507.556343 C358.405611,507.097846 355.269066,506.000322 352.43509,504.326741 L281.542907,462.461945 C268.681645,454.866833 252.707589,454.866833 239.846328,462.461945 Z" opacity=".48"/>
    </g>
  </g>
</svg>
