<svg xmlns="http://www.w3.org/2000/svg" width="329" height="293" viewBox="0 0 329 293">
  <defs>
    <linearGradient id="companies-img-a" x1="90.069%" x2="50%" y1="9.258%" y2="84.132%">
      <stop offset="0%" stop-color="#DDB6FF"/>
      <stop offset="100%" stop-color="#FACED9"/>
    </linearGradient>
  </defs>
  <g fill="url(#companies-img-a)" fill-rule="evenodd" transform="translate(-29 -29)">
    <path d="M205.528455,44.4728708 L285.973865,124.918282 L285.973865,124.918282 C308.23375,147.178166 308.23375,183.26857 285.973865,205.528455 L205.528455,285.973865 L205.528455,285.973865 C183.26857,308.23375 147.178166,308.23375 124.918282,285.973865 L44.4728708,205.528455 L44.4728708,205.528455 C22.2129862,183.26857 22.2129862,147.178166 44.4728708,124.918282 L124.918282,44.4728708 L124.918282,44.4728708 C147.178166,22.2129862 183.26857,22.2129862 205.528455,44.4728708 Z" transform="rotate(13 165.223 165.223)"/>
    <path fill-opacity=".32" d="M232.528455,54.4728708 L312.973865,134.918282 L312.973865,134.918282 C335.23375,157.178166 335.23375,193.26857 312.973865,215.528455 L232.528455,295.973865 L232.528455,295.973865 C210.26857,318.23375 174.178166,318.23375 151.918282,295.973865 L71.4728708,215.528455 L71.4728708,215.528455 C49.2129862,193.26857 49.2129862,157.178166 71.4728708,134.918282 L151.918282,54.4728708 L151.918282,54.4728708 C174.178166,32.2129862 210.26857,32.2129862 232.528455,54.4728708 Z" transform="rotate(13 192.223 175.223)"/>
    <path fill-opacity=".32" d="M262.528455,65.4728708 L342.973865,145.918282 L342.973865,145.918282 C365.23375,168.178166 365.23375,204.26857 342.973865,226.528455 L262.528455,306.973865 L262.528455,306.973865 C240.26857,329.23375 204.178166,329.23375 181.918282,306.973865 L101.472871,226.528455 L101.472871,226.528455 C79.2129862,204.26857 79.2129862,168.178166 101.472871,145.918282 L181.918282,65.4728708 L181.918282,65.4728708 C204.178166,43.2129862 240.26857,43.2129862 262.528455,65.4728708 Z" transform="rotate(13 222.223 186.223)"/>
  </g>
</svg>
